<svg width="48" height="48" viewBox="0 0 48 48" fill="none" xmlns="http://www.w3.org/2000/svg">
<rect width="48" height="48" fill="black"/>
<g clip-path="url(#clip0_182_1591)">
<path d="M36.9084 23.8862C36.9025 27.1939 35.6526 30.3782 33.407 32.8067C31.1614 35.2353 28.0845 36.7302 24.7874 36.9946C21.4904 37.2591 18.2146 36.2736 15.6106 34.234C13.0067 32.1944 11.2653 29.25 10.7323 25.9856C10.1993 22.7212 10.9137 19.3757 12.7337 16.6138C14.5536 13.8519 17.3459 11.8757 20.5558 11.0777C23.7657 10.2797 27.1583 10.7183 30.0598 12.3064C32.9612 13.8946 35.159 16.516 36.2167 19.6499C36.6763 21.015 36.9099 22.4459 36.9084 23.8862Z" fill="#F93052"/>
<path d="M36.2141 19.6473L19.4362 36.4276C17.8773 35.9005 16.4312 35.0856 15.1729 34.0251C15.227 33.9587 15.2812 33.8971 15.3427 33.8356L33.3907 15.7876C33.5277 15.6508 33.6805 15.531 33.8461 15.4307C34.8874 16.679 35.6901 18.1084 36.2141 19.6473Z" fill="#F15A24"/>
<path d="M30.9612 12.8362C30.9169 12.8878 30.8726 12.9371 30.8209 12.9863L12.7754 31.0343C12.7262 31.0835 12.6769 31.1278 12.6252 31.1746C11.6752 29.7407 11.0161 28.134 10.6855 26.446L26.2154 10.8989C27.9093 11.2266 29.5219 11.8849 30.9612 12.8362Z" fill="#F15A24"/>
<path d="M39.8302 22.3848C39.272 26.1846 37.3657 29.6569 34.4594 32.1675C31.5531 34.6782 27.8406 36.0596 24 36.0596C20.1594 36.0596 16.4469 34.6782 13.5406 32.1675C10.6343 29.6569 8.72796 26.1846 8.16985 22.3848C8.05705 23.1592 8.00029 23.9407 8 24.7232C8 28.9667 9.68571 33.0364 12.6863 36.0369C15.6869 39.0375 19.7565 40.7232 24 40.7232C28.2435 40.7232 32.3131 39.0375 35.3137 36.0369C38.3143 33.0364 40 28.9667 40 24.7232C39.9997 23.9407 39.9429 23.1592 39.8302 22.3848Z" fill="#ED1C24"/>
<path d="M24 11.9231C26.1908 11.9231 28.3324 12.5727 30.154 13.7899C31.9756 15.007 33.3954 16.737 34.2337 18.761C35.0721 20.7851 35.2915 23.0123 34.8641 25.161C34.4367 27.3097 33.3817 29.2834 31.8326 30.8326C30.2834 32.3817 28.3097 33.4367 26.161 33.8641C24.0123 34.2915 21.7851 34.0721 19.7611 33.2337C17.737 32.3954 16.007 30.9756 14.7899 29.154C13.5727 27.3324 12.9231 25.1908 12.9231 23C12.9263 20.0632 14.0944 17.2477 16.171 15.171C18.2477 13.0944 21.0632 11.9263 24 11.9231ZM24 7C20.8355 7 17.7421 7.93838 15.1109 9.69649C12.4797 11.4546 10.4289 13.9534 9.21793 16.8771C8.00693 19.8007 7.69008 23.0177 8.30744 26.1214C8.92481 29.2251 10.4487 32.0761 12.6863 34.3137C14.9239 36.5513 17.7749 38.0752 20.8786 38.6926C23.9823 39.3099 27.1993 38.9931 30.1229 37.7821C33.0466 36.5711 35.5454 34.5203 37.3035 31.8891C39.0616 29.2579 40 26.1645 40 23C40 18.7565 38.3143 14.6869 35.3137 11.6863C32.3131 8.68571 28.2435 7 24 7Z" fill="#F7931E"/>
<path d="M24.1231 34.3233C17.9028 34.3233 12.3668 31.8889 8.83447 28.1055C9.8929 31.244 11.8993 33.9768 14.5768 35.9266C17.2543 37.8764 20.471 38.9472 23.7829 38.9912C27.0948 39.0353 30.3388 38.0503 33.0672 36.1724C35.7956 34.2944 37.8739 31.616 39.0154 28.5067C35.4806 32.0612 30.1194 34.3233 24.1231 34.3233Z" fill="#F15A24"/>
<path d="M20.458 25.208H19.69C18.5344 25.208 17.5977 26.1448 17.5977 27.3003V28.0683C17.5977 29.2239 18.5344 30.1606 19.69 30.1606H20.458C21.6135 30.1606 22.5503 29.2239 22.5503 28.0683V27.3003C22.5503 26.1448 21.6135 25.208 20.458 25.208Z" fill="#C1272D"/>
<path d="M28.785 24.9175H27.9703C26.7467 24.9175 25.7549 25.9093 25.7549 27.1329V27.9476C25.7549 29.1712 26.7467 30.163 27.9703 30.163H28.785C30.0086 30.163 31.0004 29.1712 31.0004 27.9476V27.1329C31.0004 25.9093 30.0086 24.9175 28.785 24.9175Z" fill="#C1272D"/>
<path d="M21.3194 17.0503H20.8665C20.1868 17.0503 19.6357 17.6013 19.6357 18.2811V27.182C19.6357 27.8617 20.1868 28.4128 20.8665 28.4128H21.3194C21.9992 28.4128 22.5502 27.8617 22.5502 27.182V18.2811C22.5502 17.6013 21.9992 17.0503 21.3194 17.0503Z" fill="#C1272D"/>
<path d="M30.998 18.734V18.2811C30.998 17.6013 30.447 17.0503 29.7673 17.0503H20.8664C20.1866 17.0503 19.6356 17.6013 19.6356 18.2811V18.734C19.6356 19.4137 20.1866 19.9648 20.8664 19.9648H29.7673C30.447 19.9648 30.998 19.4137 30.998 18.734Z" fill="#C1272D"/>
<path d="M29.7696 17.0503H29.3167C28.637 17.0503 28.0859 17.6013 28.0859 18.2811V26.8915C28.0859 27.5713 28.637 28.1223 29.3167 28.1223H29.7696C30.4494 28.1223 31.0004 27.5713 31.0004 26.8915V18.2811C31.0004 17.6013 30.4494 17.0503 29.7696 17.0503Z" fill="#C1272D"/>
<path d="M21.6762 26.8103C21.6762 25.4427 20.5676 24.334 19.1999 24.334C17.8323 24.334 16.7236 25.4427 16.7236 26.8103C16.7236 28.1779 17.8323 29.2866 19.1999 29.2866C20.5676 29.2866 21.6762 28.1779 21.6762 26.8103Z" fill="white"/>
<path d="M27.5053 24.0435H27.5029C26.0551 24.0435 24.8813 25.2172 24.8813 26.665V26.6675C24.8813 28.1153 26.0551 29.289 27.5029 29.289H27.5053C28.9532 29.289 30.1269 28.1153 30.1269 26.6675V26.665C30.1269 25.2172 28.9532 24.0435 27.5053 24.0435Z" fill="white"/>
<path d="M20.4454 16.1768H19.9925C19.3128 16.1768 18.7617 16.7278 18.7617 17.4075V26.3085C18.7617 26.9882 19.3128 27.5392 19.9925 27.5392H20.4454C21.1251 27.5392 21.6762 26.9882 21.6762 26.3085V17.4075C21.6762 16.7278 21.1251 16.1768 20.4454 16.1768Z" fill="white"/>
<path d="M30.1245 17.8605V17.4075C30.1245 16.7278 29.5735 16.1768 28.8937 16.1768H19.9928C19.3131 16.1768 18.7621 16.7278 18.7621 17.4075V17.8605C18.7621 18.5402 19.3131 19.0912 19.9928 19.0912H28.8937C29.5735 19.0912 30.1245 18.5402 30.1245 17.8605Z" fill="white"/>
<path d="M28.8961 16.1768H28.4432C27.7634 16.1768 27.2124 16.7278 27.2124 17.4075V26.018C27.2124 26.6977 27.7634 27.2488 28.4432 27.2488H28.8961C29.5758 27.2488 30.1269 26.6977 30.1269 26.018V17.4075C30.1269 16.7278 29.5758 16.1768 28.8961 16.1768Z" fill="white"/>
<g style="mix-blend-mode:soft-light">
<path d="M29.2382 18.0093C29.4205 17.6798 29.3013 17.2649 28.9719 17.0825C28.6424 16.9001 28.2275 17.0193 28.0451 17.3488C27.8627 17.6782 27.9819 18.0932 28.3114 18.2756C28.6408 18.458 29.0558 18.3387 29.2382 18.0093Z" fill="white"/>
</g>
<g style="mix-blend-mode:soft-light">
<path d="M27.9479 18.4645C28.0387 18.3004 27.9793 18.0936 27.8152 18.0028C27.6511 17.9119 27.4444 17.9713 27.3535 18.1354C27.2626 18.2996 27.322 18.5063 27.4862 18.5971C27.6503 18.688 27.857 18.6286 27.9479 18.4645Z" fill="white"/>
</g>
</g>
<defs>
<clipPath id="clip0_182_1591">
<rect width="32" height="33.7231" fill="white" transform="translate(8 7)"/>
</clipPath>
</defs>
</svg>
