<svg width="48" height="48" viewBox="0 0 48 48" fill="none" xmlns="http://www.w3.org/2000/svg">
<rect width="48" height="48" fill="black"/>
<path d="M9.35156 24.5215H14.1914V25.6172H9.35156V24.5215Z" fill="#FFCE6C"/>
<path d="M9.35156 28.9102H14.1914V30.0059H9.35156V28.9102Z" fill="#FFCE6C"/>
<path d="M9.35156 31.1016H14.1914V32.1973H9.35156V31.1016Z" fill="#FFCE6C"/>
<path d="M9.35156 17.9355H14.1914V19.0312H9.35156V17.9355Z" fill="#FFCE6C"/>
<path d="M9.35156 20.1328H14.1914V21.2285H9.35156V20.1328Z" fill="#FFCE6C"/>
<path d="M9.35156 22.3242H14.1914V23.4199H9.35156V22.3242Z" fill="#FFCE6C"/>
<path d="M9.35156 26.7129H14.1914V27.8086H9.35156V26.7129Z" fill="#FFCE6C"/>
<path d="M9.35156 33.2988H14.1914V34.3945H9.35156V33.2988Z" fill="#FFCE6C"/>
<path d="M9.35156 35.4902H14.1914V36.6445H9.35156V35.4902Z" fill="#FFCE6C"/>
<path d="M15.4629 13.5469H20.3027V14.6426H15.4629V13.5469Z" fill="#ED6F62"/>
<path d="M15.4629 22.3242H20.3027V23.4199H15.4629V22.3242Z" fill="#ED6F62"/>
<path d="M15.4629 24.5215H20.3027V25.6172H15.4629V24.5215Z" fill="#ED6F62"/>
<path d="M15.4629 15.7441H20.3027V16.8398H15.4629V15.7441Z" fill="#ED6F62"/>
<path d="M15.4629 35.4902H20.3027V36.6445H15.4629V35.4902Z" fill="#ED6F62"/>
<path d="M15.4629 33.2988H20.3027V34.3945H15.4629V33.2988Z" fill="#ED6F62"/>
<path d="M15.4629 17.9355H20.3027V19.0312H15.4629V17.9355Z" fill="#ED6F62"/>
<path d="M15.4629 31.1016H20.3027V32.1973H15.4629V31.1016Z" fill="#ED6F62"/>
<path d="M15.4629 26.7129H20.3027V27.8086H15.4629V26.7129Z" fill="#ED6F62"/>
<path d="M15.4629 28.9102H20.3027V30.0059H15.4629V28.9102Z" fill="#ED6F62"/>
<path d="M15.4629 20.1328H20.3027V21.2285H15.4629V20.1328Z" fill="#ED6F62"/>
<path d="M15.4629 11.3555H20.3027V12.4512H15.4629V11.3555Z" fill="#ED6F62"/>
<path d="M21.5801 28.9922H26.4199V30.0059H21.5801V28.9922Z" fill="#7DBAE7"/>
<path d="M21.5801 33.2988H26.4199V34.3945H21.5801V33.2988Z" fill="#7DBAE7"/>
<path d="M21.5801 31.1016H26.4199V32.1973H21.5801V31.1016Z" fill="#7DBAE7"/>
<path d="M21.5801 35.4902H26.4199V36.6445H21.5801V35.4902Z" fill="#7DBAE7"/>
<path d="M27.6914 22.3242H32.5313V23.4199H27.6914V22.3242Z" fill="#A6D17A"/>
<path d="M27.6914 33.2988H32.5313V34.3945H27.6914V33.2988Z" fill="#A6D17A"/>
<path d="M27.6914 35.4902H32.5313V36.6445H27.6914V35.4902Z" fill="#A6D17A"/>
<path d="M27.6914 31.1016H32.5313V32.1973H27.6914V31.1016Z" fill="#A6D17A"/>
<path d="M27.6914 26.7129H32.5313V27.8086H27.6914V26.7129Z" fill="#A6D17A"/>
<path d="M27.6914 28.9102H32.5313V30.0059H27.6914V28.9102Z" fill="#A6D17A"/>
<path d="M27.6914 24.5215H32.5313V25.6172H27.6914V24.5215Z" fill="#A6D17A"/>
<path d="M33.8086 24.5215H38.6484V25.6172H33.8086V24.5215Z" fill="#7DBAE7"/>
<path d="M33.8086 22.3242H38.6484V23.4199H33.8086V22.3242Z" fill="#7DBAE7"/>
<path d="M33.8086 20.1328H38.6484V21.2285H33.8086V20.1328Z" fill="#7DBAE7"/>
<path d="M33.8086 15.7441H38.6484V16.8398H33.8086V15.7441Z" fill="#7DBAE7"/>
<path d="M33.8086 13.5469H38.6484V14.6426H33.8086V13.5469Z" fill="#7DBAE7"/>
<path d="M33.8086 17.9355H38.6484V19.0312H33.8086V17.9355Z" fill="#7DBAE7"/>
<path d="M33.8086 35.4902H38.6484V36.6445H33.8086V35.4902Z" fill="#7DBAE7"/>
<path d="M33.8086 28.9102H38.6484V30.0059H33.8086V28.9102Z" fill="#7DBAE7"/>
<path d="M33.8086 31.1016H38.6484V32.1973H33.8086V31.1016Z" fill="#7DBAE7"/>
<path d="M33.8086 33.2988H38.6484V34.3945H33.8086V33.2988Z" fill="#7DBAE7"/>
<path d="M33.8086 26.7129H38.6484V27.8086H33.8086V26.7129Z" fill="#7DBAE7"/>
</svg>
