<svg width="48" height="48" viewBox="0 0 48 48" fill="none" xmlns="http://www.w3.org/2000/svg">
<rect width="48" height="48" fill="black"/>
<path d="M8.98 22.2799C8.44 22.2799 8 22.7199 8 23.2599V24.7349C8 25.2749 8.44 25.7149 8.98 25.7149C9.52 25.7149 9.96 25.2749 9.96 24.7349V23.2599C9.96 22.7199 9.52 22.2799 8.98 22.2799ZM12.735 18.5249C12.195 18.5249 11.755 18.9649 11.755 19.5049V28.4949C11.755 29.0349 12.195 29.4749 12.735 29.4749C13.275 29.4749 13.715 29.0349 13.715 28.4949V19.5049C13.715 18.9599 13.275 18.5249 12.735 18.5249ZM16.49 20.8749C15.95 20.8749 15.51 21.3149 15.51 21.8549V26.1449C15.51 26.6849 15.95 27.1249 16.49 27.1249C17.03 27.1249 17.47 26.6849 17.47 26.1449V21.8549C17.47 21.3149 17.03 20.8749 16.49 20.8749ZM20.245 17.0799C19.705 17.0799 19.265 17.5199 19.265 18.0599V29.9449C19.265 30.4849 19.705 30.9249 20.245 30.9249C20.785 30.9249 21.225 30.4849 21.225 29.9449V18.0599C21.225 17.5149 20.785 17.0799 20.245 17.0799ZM24 13.1099C23.46 13.1099 23.02 13.5499 23.02 14.0899V33.9099C23.02 34.4499 23.46 34.8899 24 34.8899C24.54 34.8899 24.98 34.4499 24.98 33.9099V14.0899C24.98 13.5499 24.54 13.1099 24 13.1099ZM27.755 16.7649C27.215 16.7649 26.775 17.2049 26.775 17.7449V30.2499C26.775 30.7899 27.215 31.2299 27.755 31.2299C28.295 31.2299 28.735 30.7899 28.735 30.2499V17.7449C28.735 17.2049 28.295 16.7649 27.755 16.7649ZM31.51 21.5649C30.97 21.5649 30.53 22.0049 30.53 22.5449V25.4599C30.53 25.9999 30.97 26.4399 31.51 26.4399C32.05 26.4399 32.49 25.9999 32.49 25.4599V22.5449C32.49 21.9999 32.05 21.5649 31.51 21.5649ZM35.265 18.1249C34.725 18.1249 34.285 18.5649 34.285 19.1049V28.8949C34.285 29.4349 34.725 29.8749 35.265 29.8749C35.805 29.8749 36.245 29.4349 36.245 28.8949V19.1049C36.245 18.5649 35.805 18.1249 35.265 18.1249ZM39.02 22.0149C38.48 22.0149 38.04 22.4549 38.04 22.9949V24.9999C38.04 25.5399 38.48 25.9799 39.02 25.9799C39.56 25.9799 40 25.5399 40 24.9999V22.9949C40 22.4549 39.56 22.0149 39.02 22.0149Z" fill="#159AE4"/>
</svg>
