<svg width="48" height="48" viewBox="0 0 48 48" fill="none" xmlns="http://www.w3.org/2000/svg">
<rect width="48" height="48" fill="black"/>
<path d="M37.2806 8.54836C37.1071 8.40013 36.9038 8.29091 36.6845 8.22808C36.4651 8.16525 36.2348 8.15028 36.0092 8.18419L15.4258 11.3509C15.0518 11.4084 14.7108 11.5979 14.4645 11.8852C14.2182 12.1724 14.0829 12.5384 14.0832 12.9168V29.3059C13.3433 28.9445 12.5315 28.7545 11.7082 28.7501C10.6121 28.7501 9.54071 29.0751 8.62939 29.684C7.71807 30.293 7.00778 31.1585 6.58834 32.1711C6.16891 33.1837 6.05916 34.2979 6.27299 35.3729C6.48681 36.4479 7.01461 37.4353 7.78962 38.2103C8.56464 38.9853 9.55207 39.5131 10.627 39.727C11.702 39.9408 12.8163 39.831 13.8289 39.4116C14.8415 38.9922 15.707 38.2819 16.3159 37.3706C16.9248 36.4592 17.2498 35.3878 17.2498 34.2918V22.1919L34.6665 19.5129V26.1392C33.9267 25.7778 33.1149 25.5879 32.2915 25.5834C31.1955 25.5834 30.124 25.9085 29.2127 26.5174C28.3014 27.1263 27.5911 27.9918 27.1717 29.0044C26.7522 30.017 26.6425 31.1313 26.8563 32.2062C27.0701 33.2812 27.5979 34.2686 28.373 35.0437C29.148 35.8187 30.1354 36.3465 31.2104 36.5603C32.2854 36.7741 33.3996 36.6644 34.4122 36.2449C35.4248 35.8255 36.2903 35.1152 36.8992 34.2039C37.5082 33.2926 37.8332 32.2211 37.8332 31.1251V9.75011C37.8332 9.5218 37.7838 9.29619 37.6884 9.08876C37.593 8.88133 37.4539 8.69698 37.2806 8.54836Z" fill="#6563FF"/>
</svg>
