<svg width="48" height="48" viewBox="0 0 48 48" fill="none" xmlns="http://www.w3.org/2000/svg">
<rect width="48" height="48" fill="black"/>
<g clip-path="url(#clip0_182_1698)">
<path d="M20.6429 8.53545L14.0825 9.94928C13.8473 9.99943 13.6364 10.1287 13.485 10.3154C13.3336 10.5022 13.2507 10.7353 13.2503 10.9757V22.2662C12.7716 22.0999 12.2684 22.0153 11.7617 22.016C9.47037 22.016 7.61279 23.6985 7.61279 25.774C7.61279 27.8495 9.47037 29.532 11.7618 29.532C13.3365 29.532 14.9115 28.6761 15.5661 27.2167C16.1351 25.9484 15.9106 24.4238 15.9106 23.0635V14.0379L24.9454 11.9395C24.9144 9.70721 22.836 8.06288 20.643 8.53551L20.6429 8.53545Z" fill="#BC66FF"/>
<path d="M20.64 18.9392V31.027C20.6398 31.0558 20.6329 31.0842 20.6199 31.11C20.6069 31.1357 20.5881 31.158 20.5649 31.1752C20.5418 31.1924 20.5149 31.2039 20.4865 31.209C20.4582 31.214 20.429 31.2124 20.4013 31.2042C19.9949 31.088 19.5741 31.0293 19.1514 31.0297C16.86 31.0297 15.0024 32.7122 15.0024 34.7877C15.0024 36.8632 16.86 38.5457 19.1514 38.5457C20.7261 38.5457 22.3011 37.6898 22.9558 36.2304C23.5247 34.9621 23.3003 33.4374 23.3003 32.0772V22.2457C23.3004 22.176 23.3241 22.1085 23.3675 22.054C23.411 21.9996 23.4715 21.9614 23.5394 21.9458L32.3351 19.9029C32.3804 19.8923 32.4275 19.892 32.4729 19.9021C32.5183 19.9122 32.5609 19.9324 32.5974 19.9612C32.634 19.99 32.6635 20.0267 32.6839 20.0686C32.7042 20.1104 32.7149 20.1563 32.7151 20.2029V30.1029C32.7149 30.1317 32.7081 30.1601 32.695 30.1858C32.682 30.2116 32.6632 30.2339 32.64 30.2511C32.6169 30.2683 32.5901 30.2799 32.5617 30.2849C32.5333 30.2899 32.5041 30.2883 32.4765 30.2801C32.07 30.1639 31.6492 30.1052 31.2265 30.1055C28.9351 30.1055 27.0775 31.7881 27.0775 33.8636C27.0775 35.9391 28.9351 37.6216 31.2264 37.6216C32.613 37.6216 33.9918 36.9037 34.7695 35.7293C35.523 34.5913 35.3757 33.3958 35.3753 32.11C35.3746 29.8167 35.3746 27.5235 35.3753 25.2302V16.0622C35.3749 15.9239 35.3435 15.7874 35.2834 15.6627C35.2234 15.5381 35.1362 15.4284 35.0283 15.3418C34.9204 15.2552 34.7945 15.1939 34.6598 15.1622C34.5251 15.1306 34.385 15.1295 34.2498 15.1591L21.4721 17.9127C21.237 17.9629 21.0261 18.0921 20.8747 18.2789C20.7232 18.4657 20.6404 18.6987 20.64 18.9392Z" fill="#BC66FF"/>
<path d="M30.8986 20.203C30.8985 20.1565 30.8878 20.1106 30.8675 20.0687C30.8471 20.0269 30.8175 19.9902 30.781 19.9614C30.7445 19.9325 30.7019 19.9123 30.6565 19.9022C30.6111 19.8921 30.564 19.8924 30.5187 19.9031L21.723 21.9459C21.6551 21.9615 21.5945 21.9997 21.5511 22.0542C21.5077 22.1086 21.484 22.1762 21.4839 22.2459V32.0774C21.4839 33.4376 21.7082 34.9623 21.1393 36.2306C20.6103 37.4098 19.4802 38.1948 18.2351 38.4527C18.5366 38.5145 18.8436 38.5457 19.1513 38.5459C20.726 38.5459 22.3011 37.6899 22.9557 36.2306C23.5246 34.9623 23.3003 33.4376 23.3003 32.0774V22.2459C23.3004 22.1762 23.3241 22.1086 23.3675 22.0542C23.4109 21.9997 23.4715 21.9615 23.5394 21.9459L30.8986 20.2367V20.203ZM18.8217 31.0427C18.6273 31.0565 18.4339 31.0827 18.2429 31.1212C18.3587 31.1449 18.473 31.1722 18.5849 31.2043C18.6112 31.2121 18.6389 31.2138 18.666 31.2096C18.6931 31.2053 18.7189 31.195 18.7416 31.1796C18.7642 31.1641 18.7832 31.1438 18.797 31.1201C18.8109 31.0964 18.8193 31.07 18.8217 31.0427V31.0427ZM35.3753 32.1102C35.3746 29.8169 35.3746 27.5236 35.3753 25.2304V16.0624C35.3748 15.924 35.3434 15.7875 35.2834 15.6629C35.2234 15.5382 35.1362 15.4286 35.0283 15.342C34.9204 15.2554 34.7944 15.194 34.6597 15.1624C34.525 15.1308 34.385 15.1297 34.2498 15.1592L33.2488 15.3749C33.3464 15.4609 33.4245 15.5667 33.478 15.6852C33.5314 15.8038 33.559 15.9324 33.5589 16.0624V32.1102C33.5593 33.3959 33.7066 34.5914 32.9531 35.7295C32.3312 36.6483 31.3786 37.2916 30.294 37.5253C30.6007 37.5893 30.9132 37.6216 31.2264 37.6217C32.613 37.6217 33.9918 36.9039 34.7695 35.7295C35.523 34.5914 35.3757 33.396 35.3753 32.1102ZM30.8968 30.1186C30.7024 30.1324 30.509 30.1586 30.318 30.1972C30.4338 30.2207 30.5481 30.2482 30.66 30.2803C30.6863 30.288 30.7141 30.2898 30.7411 30.2855C30.7682 30.2812 30.794 30.271 30.8167 30.2555C30.8394 30.24 30.8583 30.2197 30.8721 30.1961C30.886 30.1724 30.8944 30.1459 30.8968 30.1186ZM15.5664 27.2168C16.1353 25.9484 15.9109 24.4237 15.9109 23.0635V14.0378L24.9457 11.9395C24.9147 9.70721 22.8362 8.06288 20.6432 8.53551L20.4804 8.57056C21.2298 8.76484 21.8947 9.19959 22.3732 9.80813C22.8517 10.4167 23.1173 11.1654 23.1293 11.9394L14.0944 14.0379V23.0637C14.0944 24.4239 14.3189 25.9485 13.7499 27.2168C13.2209 28.396 12.0908 29.181 10.8457 29.439C11.1472 29.5008 11.4542 29.532 11.762 29.5321C13.3367 29.5321 14.9117 28.6761 15.5664 27.2168ZM11.4342 22.0287C11.239 22.0424 11.0449 22.0687 10.8531 22.1075C11.0501 22.1472 11.2443 22.2002 11.4342 22.2661V22.0287Z" fill="#6916AA"/>
<path d="M11.7616 29.9863C9.22352 29.9863 7.15869 28.0968 7.15869 25.7742C7.15869 23.4516 9.22352 21.5621 11.7616 21.5621C12.1093 21.5619 12.456 21.5978 12.7962 21.6695V10.9759C12.7981 10.6321 12.9171 10.2991 13.1335 10.0319C13.3499 9.76465 13.6508 9.57905 13.9867 9.50563L20.5472 8.0918C21.1257 7.9657 21.7249 7.96956 22.3017 8.1031C22.8785 8.23664 23.4185 8.49653 23.8827 8.86402C24.3468 9.23151 24.7237 9.69745 24.986 10.2282C25.2483 10.759 25.3895 11.3414 25.3995 11.9333C25.4009 12.037 25.3668 12.138 25.3029 12.2196C25.239 12.3012 25.1491 12.3585 25.0481 12.382L16.3647 14.3988V23.0638C16.3647 23.3524 16.375 23.6459 16.3859 23.9566C16.4264 25.1159 16.4684 26.3147 15.9804 27.4029C15.2872 28.9481 13.5918 29.9863 11.7616 29.9864V29.9863ZM11.7616 22.4703C9.72437 22.4703 8.06689 23.9525 8.06689 25.7742C8.06689 27.5959 9.72437 29.0781 11.7616 29.0781C13.2401 29.0781 14.6025 28.2555 15.1517 27.0311C15.5534 26.1356 15.5151 25.0441 15.4782 23.9884C15.4675 23.6835 15.4564 23.3683 15.4564 23.0638V14.038C15.4564 13.9355 15.4911 13.8359 15.555 13.7556C15.6188 13.6753 15.7079 13.6189 15.8078 13.5957L24.4652 11.585C24.361 10.7964 23.9541 10.0792 23.3305 9.58531C22.9706 9.29809 22.5512 9.0947 22.1029 8.98992C21.6545 8.88514 21.1884 8.88162 20.7385 8.9796L14.1781 10.3934C14.0447 10.4222 13.9251 10.4957 13.839 10.6015C13.7529 10.7074 13.7054 10.8395 13.7044 10.9759V22.2664C13.7044 22.3389 13.687 22.4103 13.6538 22.4747C13.6205 22.5391 13.5724 22.5947 13.5133 22.6366C13.4542 22.6786 13.3859 22.7058 13.3142 22.716C13.2424 22.7263 13.1693 22.7191 13.1008 22.6953C12.6702 22.5456 12.2175 22.4696 11.7616 22.4703Z" fill="white"/>
<path d="M19.1514 38.9998C16.6132 38.9998 14.5483 37.1102 14.5483 34.7876C14.5483 32.4651 16.6132 30.5755 19.1513 30.5755C19.4989 30.5753 19.8457 30.6114 20.1859 30.683V18.9391C20.1878 18.5953 20.3068 18.2623 20.5232 17.9951C20.7395 17.7278 21.0405 17.5422 21.3764 17.4688L34.1542 14.7151C34.3556 14.6713 34.5643 14.6732 34.7649 14.7205C34.9655 14.7678 35.1529 14.8594 35.3136 14.9885C35.4742 15.1177 35.6039 15.2811 35.6931 15.4669C35.7824 15.6527 35.829 15.8561 35.8294 16.0622L35.8293 27.5235C35.8291 29.0522 35.8292 30.581 35.8294 32.1098C35.8295 32.2881 35.8324 32.4685 35.8354 32.6431C35.8538 33.7456 35.8728 34.8855 35.1482 35.9799C34.7151 36.6227 34.1313 37.1498 33.4477 37.5151C32.7641 37.8804 32.0015 38.0728 31.2265 38.0756C28.6883 38.0756 26.6234 36.1861 26.6234 33.8635C26.6234 31.5409 28.6883 29.6514 31.2265 29.6514C31.5741 29.6512 31.9208 29.6872 32.261 29.7589V20.3862L23.7543 22.362V32.0772C23.7543 32.3658 23.7646 32.6593 23.7755 32.97C23.8161 34.1294 23.8581 35.3282 23.37 36.4163C22.6769 37.9616 20.9814 38.9998 19.1514 38.9998ZM19.1513 31.4837C17.114 31.4837 15.4565 32.9659 15.4565 34.7876C15.4565 36.6094 17.114 38.0916 19.1514 38.0916C20.6298 38.0916 21.9922 37.2689 22.5414 36.0445C22.9431 35.149 22.9048 34.0574 22.8679 33.0017C22.8572 32.6969 22.8461 32.3816 22.8461 32.0772V22.2457C22.8456 22.0733 22.9039 21.9058 23.0112 21.7709C23.1185 21.636 23.2686 21.5416 23.4367 21.5033L32.2323 19.4605C32.3442 19.4344 32.4606 19.4338 32.5727 19.4589C32.6849 19.4841 32.7899 19.5342 32.8799 19.6055C32.97 19.6769 33.0428 19.7677 33.0929 19.8711C33.143 19.9745 33.1691 20.0879 33.1692 20.2028V30.1028C33.1696 30.2017 33.1469 30.2993 33.1028 30.3878C33.0586 30.4763 32.9944 30.5532 32.9152 30.6124C32.8355 30.672 32.7432 30.7124 32.6454 30.7305C32.5476 30.7485 32.447 30.7438 32.3513 30.7165C31.9855 30.6121 31.6069 30.5592 31.2265 30.5596C29.1891 30.5596 27.5316 32.0418 27.5316 33.8635C27.5316 35.6853 29.1891 37.1674 31.2264 37.1674C32.4694 37.1674 33.7115 36.5046 34.3909 35.4785C34.96 34.619 34.9448 33.7104 34.9273 32.6582C34.9243 32.48 34.9213 32.2958 34.9212 32.1101C34.9208 30.5812 34.9208 29.0523 34.9211 27.5234L34.9212 16.0622C34.9213 15.9923 34.9056 15.9232 34.8753 15.8602C34.8451 15.7972 34.8011 15.7417 34.7465 15.698C34.6911 15.6531 34.6263 15.6212 34.5568 15.6048C34.4874 15.5883 34.4152 15.5877 34.3455 15.6029L21.5677 18.3566C21.4344 18.3855 21.3148 18.4589 21.2287 18.5647C21.1426 18.6706 21.0951 18.8026 21.0941 18.9391V31.0269C21.0945 31.1258 21.0717 31.2234 21.0276 31.3119C20.9835 31.4004 20.9193 31.4773 20.8401 31.5365C20.7604 31.5961 20.6681 31.6365 20.5703 31.6546C20.4725 31.6726 20.3718 31.6679 20.2761 31.6406C19.9103 31.5362 19.5317 31.4834 19.1513 31.4837Z" fill="white"/>
</g>
<defs>
<clipPath id="clip0_182_1698">
<rect width="31" height="31" fill="white" transform="translate(6 8)"/>
</clipPath>
</defs>
</svg>
