<svg width="48" height="48" viewBox="0 0 48 48" fill="none" xmlns="http://www.w3.org/2000/svg">
<rect width="48" height="48" fill="black"/>
<g clip-path="url(#clip0_182_1733)">
<path d="M23.5 13.1667C23.3287 13.1667 23.1644 13.0986 23.0433 12.9775C22.9222 12.8564 22.8542 12.6921 22.8542 12.5208V8.64583C22.8542 8.47455 22.9222 8.31028 23.0433 8.18916C23.1644 8.06804 23.3287 8 23.5 8C23.6713 8 23.8356 8.06804 23.9567 8.18916C24.0778 8.31028 24.1458 8.47455 24.1458 8.64583V12.5208C24.1458 12.6921 24.0778 12.8564 23.9567 12.9775C23.8356 13.0986 23.6713 13.1667 23.5 13.1667ZM23.5 39C23.3287 39 23.1644 38.932 23.0433 38.8108C22.9222 38.6897 22.8542 38.5255 22.8542 38.3542V34.4792C22.8542 34.3079 22.9222 34.1436 23.0433 34.0225C23.1644 33.9014 23.3287 33.8333 23.5 33.8333C23.6713 33.8333 23.8356 33.9014 23.9567 34.0225C24.0778 34.1436 24.1458 34.3079 24.1458 34.4792V38.3542C24.1458 38.5255 24.0778 38.6897 23.9567 38.8108C23.8356 38.932 23.6713 39 23.5 39ZM38.3542 24.1458H34.4792C34.3079 24.1458 34.1436 24.0778 34.0225 23.9567C33.9014 23.8356 33.8333 23.6713 33.8333 23.5C33.8333 23.3287 33.9014 23.1644 34.0225 23.0433C34.1436 22.9222 34.3079 22.8542 34.4792 22.8542H38.3542C38.5255 22.8542 38.6897 22.9222 38.8108 23.0433C38.932 23.1644 39 23.3287 39 23.5C39 23.6713 38.932 23.8356 38.8108 23.9567C38.6897 24.0778 38.5255 24.1458 38.3542 24.1458ZM12.5208 24.1458H8.64583C8.47455 24.1458 8.31028 24.0778 8.18916 23.9567C8.06804 23.8356 8 23.6713 8 23.5C8 23.3287 8.06804 23.1644 8.18916 23.0433C8.31028 22.9222 8.47455 22.8542 8.64583 22.8542H12.5208C12.6921 22.8542 12.8564 22.9222 12.9775 23.0433C13.0986 23.1644 13.1667 23.3287 13.1667 23.5C13.1667 23.6713 13.0986 23.8356 12.9775 23.9567C12.8564 24.0778 12.6921 24.1458 12.5208 24.1458ZM13.1667 35.7708C13.039 35.7708 12.9141 35.7329 12.8079 35.6619C12.7018 35.591 12.619 35.4901 12.5701 35.3721C12.5213 35.2541 12.5085 35.1243 12.5334 34.999C12.5583 34.8738 12.6198 34.7587 12.7101 34.6684L15.2934 32.0851C15.4152 31.9674 15.5783 31.9023 15.7477 31.9038C15.917 31.9053 16.079 31.9732 16.1987 32.0929C16.3185 32.2127 16.3864 32.3747 16.3879 32.544C16.3893 32.7133 16.3242 32.8765 16.2066 32.9983L13.6233 35.5816C13.5022 35.7027 13.3379 35.7708 13.1667 35.7708ZM33.8333 35.7708C33.6621 35.7708 33.4978 35.7027 33.3767 35.5816L30.7934 32.9983C30.6758 32.8765 30.6107 32.7133 30.6121 32.544C30.6136 32.3747 30.6815 32.2127 30.8013 32.0929C30.921 31.9732 31.083 31.9053 31.2523 31.9038C31.4217 31.9023 31.5848 31.9674 31.7066 32.0851L34.2899 34.6684C34.3802 34.7587 34.4417 34.8738 34.4666 34.999C34.4915 35.1243 34.4787 35.2541 34.4299 35.3721C34.381 35.4901 34.2982 35.591 34.1921 35.6619C34.0859 35.7329 33.961 35.7708 33.8333 35.7708ZM15.75 15.1042C15.5787 15.1041 15.4145 15.0361 15.2934 14.9149L12.7101 12.3316C12.6484 12.272 12.5992 12.2008 12.5653 12.122C12.5315 12.0432 12.5137 11.9584 12.5129 11.8727C12.5122 11.7869 12.5285 11.7019 12.561 11.6225C12.5935 11.5431 12.6414 11.471 12.7021 11.4104C12.7627 11.3498 12.8348 11.3018 12.9142 11.2693C12.9935 11.2369 13.0786 11.2205 13.1643 11.2213C13.2501 11.222 13.3348 11.2398 13.4136 11.2737C13.4924 11.3075 13.5637 11.3567 13.6233 11.4184L16.2066 14.0017C16.2969 14.092 16.3584 14.2071 16.3833 14.3324C16.4082 14.4576 16.3954 14.5875 16.3465 14.7055C16.2977 14.8235 16.2149 14.9243 16.1087 14.9953C16.0026 15.0662 15.8777 15.1041 15.75 15.1042ZM31.25 15.1042C31.1223 15.1041 30.9974 15.0662 30.8913 14.9953C30.7851 14.9243 30.7023 14.8235 30.6535 14.7055C30.6046 14.5875 30.5918 14.4576 30.6167 14.3324C30.6416 14.2071 30.7031 14.092 30.7934 14.0017L33.3767 11.4184C33.4363 11.3567 33.5076 11.3075 33.5864 11.2737C33.6652 11.2398 33.7499 11.222 33.8357 11.2213C33.9214 11.2205 34.0065 11.2369 34.0858 11.2693C34.1652 11.3018 34.2373 11.3498 34.2979 11.4104C34.3586 11.471 34.4065 11.5431 34.439 11.6225C34.4715 11.7019 34.4878 11.7869 34.4871 11.8727C34.4863 11.9584 34.4685 12.0432 34.4347 12.122C34.4008 12.2008 34.3516 12.272 34.2899 12.3316L31.7066 14.9149C31.5855 15.0361 31.4213 15.1041 31.25 15.1042ZM18.9792 32.5417C18.4682 32.5417 17.9688 32.3902 17.5439 32.1063C17.1191 31.8224 16.788 31.419 16.5925 30.9469C16.397 30.4749 16.3458 29.9555 16.4455 29.4543C16.5451 28.9532 16.7912 28.4929 17.1525 28.1316C17.5138 27.7704 17.9741 27.5243 18.4752 27.4246C18.9763 27.325 19.4957 27.3761 19.9678 27.5716C20.4398 27.7672 20.8433 28.0983 21.1271 28.5231C21.411 28.9479 21.5625 29.4474 21.5625 29.9583C21.5625 30.6435 21.2903 31.3006 20.8059 31.785C20.3214 32.2695 19.6643 32.5417 18.9792 32.5417ZM18.9792 28.6667C18.7237 28.6667 18.474 28.7424 18.2616 28.8843C18.0491 29.0263 17.8836 29.228 17.7858 29.464C17.6881 29.7001 17.6625 29.9598 17.7123 30.2103C17.7622 30.4609 17.8852 30.691 18.0658 30.8717C18.2465 31.0523 18.4766 31.1753 18.7272 31.2252C18.9777 31.275 19.2374 31.2494 19.4735 31.1517C19.7095 31.0539 19.9112 30.8884 20.0531 30.6759C20.1951 30.4635 20.2708 30.2138 20.2708 29.9583C20.2708 29.6158 20.1347 29.2872 19.8925 29.045C19.6503 28.8028 19.3217 28.6667 18.9792 28.6667ZM28.0208 29.9583C27.5099 29.9583 27.0104 29.8068 26.5856 29.523C26.1608 29.2391 25.8297 28.8356 25.6341 28.3636C25.4386 27.8916 25.3875 27.3721 25.4871 26.871C25.5868 26.3699 25.8329 25.9096 26.1941 25.5483C26.5554 25.187 27.0157 24.941 27.5168 24.8413C28.018 24.7416 28.5374 24.7928 29.0094 24.9883C29.4815 25.1838 29.8849 25.5149 30.1688 25.9398C30.4527 26.3646 30.6042 26.8641 30.6042 27.375C30.6042 28.0601 30.332 28.7172 29.8475 29.2017C29.3631 29.6862 28.706 29.9583 28.0208 29.9583ZM28.0208 26.0833C27.7654 26.0833 27.5156 26.1591 27.3032 26.301C27.0908 26.4429 26.9253 26.6447 26.8275 26.8807C26.7297 27.1167 26.7041 27.3764 26.754 27.627C26.8038 27.8775 26.9268 28.1077 27.1075 28.2883C27.2881 28.469 27.5183 28.592 27.7688 28.6418C28.0194 28.6917 28.2791 28.6661 28.5151 28.5683C28.7512 28.4706 28.9529 28.305 29.0948 28.0926C29.2367 27.8802 29.3125 27.6305 29.3125 27.375C29.3125 27.0324 29.1764 26.7039 28.9342 26.4617C28.6919 26.2194 28.3634 26.0833 28.0208 26.0833Z" fill="#F5DD05"/>
<path d="M20.9166 30.6043C20.7453 30.6043 20.581 30.5362 20.4599 30.4151C20.3388 30.294 20.2708 30.1297 20.2708 29.9584V22.2084C20.2707 22.0752 20.3119 21.9452 20.3887 21.8362C20.4655 21.7273 20.5741 21.6448 20.6996 21.6L29.7413 18.3709C29.8387 18.3361 29.9431 18.3253 30.0457 18.3393C30.1482 18.3533 30.2458 18.3917 30.3304 18.4513C30.415 18.511 30.484 18.5901 30.5316 18.6819C30.5793 18.7738 30.6041 18.8758 30.6041 18.9793V26.7293C30.6041 26.9005 30.5361 27.0648 30.4149 27.1859C30.2938 27.307 30.1295 27.3751 29.9583 27.3751C29.787 27.3751 29.6227 27.307 29.5016 27.1859C29.3805 27.0648 29.3124 26.9005 29.3124 26.7293V19.8957L21.5624 22.6637V29.9584C21.5624 30.1297 21.4944 30.294 21.3733 30.4151C21.2521 30.5362 21.0879 30.6043 20.9166 30.6043ZM20.9166 20.2709C20.7644 20.271 20.617 20.2173 20.5005 20.1192C20.384 20.0212 20.3059 19.8852 20.28 19.7352C20.254 19.5852 20.2819 19.4308 20.3587 19.2994C20.4354 19.1679 20.5562 19.0678 20.6996 19.0167L29.7413 15.7875C29.9026 15.73 30.0802 15.7389 30.235 15.8123C30.3898 15.8857 30.5091 16.0176 30.5666 16.1789C30.6242 16.3403 30.6153 16.5179 30.5419 16.6727C30.4685 16.8274 30.3366 16.9467 30.1753 17.0043L21.1336 20.2335C21.0639 20.2581 20.9905 20.2708 20.9166 20.2709Z" fill="#F5DD05"/>
</g>
<defs>
<clipPath id="clip0_182_1733">
<rect width="31" height="31" fill="white" transform="translate(8 8)"/>
</clipPath>
</defs>
</svg>
