<svg width="48" height="48" viewBox="0 0 48 48" fill="none" xmlns="http://www.w3.org/2000/svg">
<rect width="48" height="48" fill="black"/>
<path d="M39.0282 17.5645H30.497V32.6282C30.494 34.5583 29.8458 36.4319 28.6555 37.9513C27.4652 39.4706 25.8011 40.5484 23.9279 41.0132C23.2509 41.1859 22.5547 41.2719 21.856 41.2692C19.5643 41.2708 17.3658 40.3619 15.7442 38.7426C14.1225 37.1232 13.2106 34.926 13.209 32.6343C13.2074 30.3426 14.1162 28.1441 15.7355 26.5225C17.3549 24.9008 19.5521 23.9889 21.8438 23.9873C22.5425 23.9845 23.2387 24.0705 23.9157 24.2432C25.4977 24.6438 26.9316 25.4898 28.0473 26.6807V6.60791L39.0282 17.5645Z" fill="#FCAE18"/>
<path d="M39.028 17.5645H30.4968V32.6282C30.4938 34.5583 29.8456 36.4319 28.6553 37.9513C27.4651 39.4706 25.801 40.5484 23.9277 41.0132V24.2432C25.5097 24.6438 26.9436 25.4898 28.0593 26.6807V6.60791L39.028 17.5645Z" fill="#F94819"/>
<path d="M26.8161 5.73047V25.7423C25.6213 24.5016 24.0826 23.6468 22.3979 23.2879C20.7132 22.9291 18.9596 23.0827 17.363 23.729C15.7663 24.3753 14.3996 25.4846 13.4388 26.9142C12.478 28.3438 11.967 30.0283 11.9717 31.7508C11.9717 31.9458 11.9717 32.1286 11.9717 32.3114H14.4092C14.4092 32.1286 14.4092 31.9458 14.4092 31.7508C14.3923 30.2112 14.9408 28.7189 15.9508 27.5568C16.9607 26.3946 18.3619 25.6434 19.8887 25.4453C21.4156 25.2473 22.9621 25.6163 24.2351 26.4824C25.508 27.3484 26.4191 28.6514 26.7955 30.1443C27.1719 31.6373 26.9876 33.2164 26.2774 34.5825C25.5672 35.9486 24.3806 37.0067 22.9424 37.5563C21.5041 38.1059 19.9142 38.1088 18.474 37.5644C17.0338 37.02 15.8434 35.9662 15.1283 34.6027H12.4592C13.1345 36.5269 14.4686 38.1503 16.2254 39.1857C17.9823 40.2211 20.0488 40.6017 22.0593 40.2603C24.0698 39.9189 25.8947 38.8774 27.2113 37.3201C28.528 35.7628 29.2514 33.7901 29.2536 31.7508V16.6748H37.7848L26.8161 5.73047ZM29.2536 11.617L31.8861 14.2373H29.2536V11.617Z" fill="black"/>
</svg>
