<svg width="48" height="48" viewBox="0 0 48 48" fill="none" xmlns="http://www.w3.org/2000/svg">
<rect width="48" height="48" fill="black"/>
<path d="M32.9284 10.0356H31.2796C26.0714 10.0379 20.9537 11.3968 16.4305 13.9786L15.8391 14.3152C15.6814 14.4063 15.5505 14.5374 15.4595 14.6952C15.3686 14.853 15.3209 15.0321 15.3213 15.2142V32.8214C15.3213 33.096 15.4304 33.3595 15.6246 33.5537C15.8189 33.748 16.0823 33.8571 16.357 33.8571C16.6317 33.8571 16.8951 33.748 17.0894 33.5537C17.2836 33.3595 17.3927 33.096 17.3927 32.8214V22.0023L18.1654 21.5196C22.2948 18.9429 27.0284 17.4954 31.8927 17.3219V30.7499C31.8927 31.0246 32.0018 31.2881 32.1961 31.4823C32.3903 31.6765 32.6537 31.7856 32.9284 31.7856C33.2031 31.7856 33.4666 31.6765 33.6608 31.4823C33.855 31.2881 33.9641 31.0246 33.9641 30.7499V11.0714C33.9641 10.7967 33.855 10.5332 33.6608 10.339C33.4666 10.1448 33.2031 10.0356 32.9284 10.0356Z" fill="url(#paint0_linear_182_1727)"/>
<path d="M12.2142 36.9644C15.0743 36.9644 17.3928 35.1096 17.3928 32.8216C17.3928 30.5335 15.0743 28.6787 12.2142 28.6787C9.35417 28.6787 7.03564 30.5335 7.03564 32.8216C7.03564 35.1096 9.35417 36.9644 12.2142 36.9644Z" fill="url(#paint1_linear_182_1727)"/>
<path d="M28.7855 34.8926C31.6456 34.8926 33.9641 33.0378 33.9641 30.7498C33.9641 28.4618 31.6456 26.6069 28.7855 26.6069C25.9255 26.6069 23.6069 28.4618 23.6069 30.7498C23.6069 33.0378 25.9255 34.8926 28.7855 34.8926Z" fill="url(#paint2_linear_182_1727)"/>
<defs>
<linearGradient id="paint0_linear_182_1727" x1="11.3783" y1="24.1089" x2="36.4354" y2="20.0106" gradientUnits="userSpaceOnUse">
<stop stop-color="#26AB5A"/>
<stop offset="1" stop-color="#7CE35D"/>
</linearGradient>
<linearGradient id="paint1_linear_182_1727" x1="5.71614" y1="38.142" x2="16.9899" y2="28.9117" gradientUnits="userSpaceOnUse">
<stop stop-color="#26AB5A"/>
<stop offset="1" stop-color="#7CE35D"/>
</linearGradient>
<linearGradient id="paint2_linear_182_1727" x1="36.1339" y1="26.5313" x2="23.8773" y2="33.568" gradientUnits="userSpaceOnUse">
<stop stop-color="#26AB5A"/>
<stop offset="1" stop-color="#7CE35D"/>
</linearGradient>
</defs>
</svg>
