<svg width="48" height="48" viewBox="0 0 48 48" fill="none" xmlns="http://www.w3.org/2000/svg">
<rect width="48" height="48" fill="black"/>
<g clip-path="url(#clip0_182_1637)">
<path d="M37.4274 22.4109V24.3656C37.1386 24.088 36.7387 23.9213 36.3167 23.9213C35.8836 23.9213 35.4948 24.0879 35.2061 24.3656V22.4109C35.2061 16.2358 30.1749 11.2046 23.9998 11.2046C17.8247 11.2046 12.7936 16.2358 12.7936 22.4109V24.3656C12.5049 24.088 12.1161 23.9213 11.6829 23.9213C11.261 23.9213 10.8611 24.0879 10.5723 24.3656V22.4109C10.5723 15.0141 16.592 8.9834 23.9998 8.9834C31.3966 8.9834 37.4274 15.0141 37.4274 22.4109Z" fill="#35A9D9"/>
<path d="M13.3048 25.4874C12.2386 25.7206 11.2057 26.2315 10.3727 27.0645C10.2617 27.1755 10.1507 27.2978 10.0396 27.4199V25.554C10.0396 24.6544 10.7837 23.9214 11.6833 23.9214C12.5718 23.9214 13.2826 24.6211 13.3048 25.4874Z" fill="#E9715F"/>
<path d="M13.5936 25.4316V37.0488C12.4163 36.86 11.2834 36.3269 10.3727 35.4162C8.06262 33.1172 8.06262 29.3744 10.3727 27.0643C11.2834 26.1536 12.4163 25.6316 13.5936 25.4316Z" fill="#D75548"/>
<path d="M15.0656 25.3654V37.1192C15.0656 37.5231 14.7363 37.8524 14.3263 37.8524C13.9225 37.8524 13.5933 37.5231 13.5933 37.1192V25.3654C13.5933 24.9615 13.9225 24.6323 14.3263 24.6323C14.7363 24.6323 15.0656 24.9615 15.0656 25.3654Z" fill="#FFCA67"/>
<path d="M17.3074 24.6947V37.7831C17.3074 38.4655 16.7562 39.0166 16.0805 39.0166C15.3981 39.0166 14.8535 38.4655 14.8535 37.7831V24.6947C14.8535 24.0189 15.3981 23.4678 16.0805 23.4678C16.7562 23.4678 17.3074 24.0189 17.3074 24.6947Z" fill="#696967"/>
<path d="M37.9606 25.554V27.4199C37.8495 27.2977 37.7384 27.1755 37.6274 27.0645C36.7944 26.2315 35.7616 25.7206 34.6953 25.4874C34.7175 24.6211 35.4283 23.9214 36.3169 23.9214C37.2165 23.9214 37.9606 24.6544 37.9606 25.554Z" fill="#E9715F"/>
<path d="M37.6276 35.4162C36.7169 36.3269 35.584 36.86 34.4067 37.0488V25.4316C35.584 25.6316 36.7169 26.1535 37.6276 27.0642C39.9377 29.3744 39.9377 33.1172 37.6276 35.4162Z" fill="#D75548"/>
<path d="M32.9331 25.3654V37.1192C32.9331 37.5231 33.2624 37.8524 33.6724 37.8524C34.0762 37.8524 34.4054 37.5231 34.4054 37.1192V25.3654C34.4054 24.9615 34.0762 24.6323 33.6724 24.6323C33.2624 24.6323 32.9331 24.9615 32.9331 25.3654Z" fill="#FFCA67"/>
<path d="M30.6914 24.6947V37.7831C30.6914 38.4655 31.2426 39.0166 31.9183 39.0166C32.6007 39.0166 33.1453 38.4655 33.1453 37.7831V24.6947C33.1453 24.0189 32.6007 23.4678 31.9183 23.4678C31.2426 23.4678 30.6914 24.0189 30.6914 24.6947Z" fill="#696967"/>
<path d="M28.8841 28.3579H28.5129C28.5129 28.3579 28.5956 26.4737 27.2279 26.6815V34.0426H27.1956C27.1956 35.3075 25.3518 36.3322 23.0763 36.3322C20.8008 36.3322 18.957 35.3075 18.957 34.0426C18.957 32.7778 20.8008 31.753 23.0763 31.753C24.0224 31.753 24.8858 31.9366 25.5818 32.2352V24.8337C25.5818 24.7228 25.6706 24.632 25.7835 24.632C27.0574 24.6654 27.1757 24.5555 27.2844 24.7329C27.3954 24.9164 27.6717 25.3018 28.1175 25.4369C29.2464 25.7805 29.139 27.2 28.8841 28.3579Z" fill="#9A7EAA"/>
<path d="M25.0255 21.1836L24.8448 21.089C24.8448 21.089 25.3653 20.193 24.6466 19.9455L22.7704 23.5282L22.7547 23.5199C22.4323 24.1356 21.2737 24.1643 20.1662 23.5843C19.0587 23.0043 18.4225 22.0356 18.745 21.42C19.0673 20.8044 20.2259 20.7756 21.3334 21.3556C21.7939 21.5967 22.1674 21.9062 22.4299 22.2289C24.3415 18.6803 24.2768 18.4807 24.4661 18.5798C25.0876 18.9263 25.1632 18.8977 25.1709 19.0115C25.1781 19.1292 25.2144 19.3871 25.3969 19.5665C25.5298 19.6974 25.6182 19.8726 25.6043 20.0592C25.5848 20.3068 25.4534 20.6746 25.0255 21.1836Z" fill="#83BD57"/>
<path d="M26.5338 13.7677L26.4597 13.9577C26.4597 13.9577 25.5119 13.5392 25.3451 14.2807L29.1127 15.7506L29.1062 15.7671C30.6544 16.3711 29.012 20.5889 27.4611 19.9838C26.8137 19.7313 26.6573 18.5829 27.1117 17.4183C27.3007 16.9341 27.567 16.5288 27.8588 16.2322C22.9303 14.2428 24.051 15.0902 24.2723 13.9323C24.3265 13.7934 24.6292 13.9029 24.8856 13.5768C25.0011 13.4303 25.1654 13.3231 25.3525 13.3164C25.6006 13.3085 25.9807 13.3985 26.5338 13.7677Z" fill="#E35B9F"/>
</g>
<defs>
<clipPath id="clip0_182_1637">
<rect width="32" height="32" fill="white" transform="translate(8 8)"/>
</clipPath>
</defs>
</svg>
