<svg width="48" height="48" viewBox="0 0 48 48" fill="none" xmlns="http://www.w3.org/2000/svg">
<rect width="48" height="48" fill="black"/>
<g clip-path="url(#clip0_182_1674)">
<path d="M33.8151 7H14.1849C10.2168 7 7 10.2167 7 14.1848V33.815C7 37.7831 10.2168 41 14.1849 41H33.8151C37.7832 41 41 37.7831 41 33.815V14.1848C41 10.2167 37.7832 7 33.8151 7Z" fill="url(#paint0_linear_182_1674)"/>
<path d="M24.0002 14.48C22.329 14.4797 20.6873 14.9197 19.2402 15.7557C17.0557 17.02 15.4619 19.0991 14.8084 21.5371C14.1549 23.975 14.4952 26.5726 15.7545 28.76C17.0188 30.9449 19.0982 32.5389 21.5365 33.1924C23.9748 33.8459 26.5727 33.5054 28.7602 32.2457C30.9451 30.9814 32.5391 28.9019 33.1926 26.4637C33.8461 24.0254 33.5056 21.4275 32.2459 19.24L31.9059 18.6443L28.6759 20.5157L29.3559 21.7043L31.268 20.5578C33.0442 24.3563 31.7821 28.9177 28.0802 31.0557C27.1542 31.5938 26.1311 31.9437 25.0695 32.0854C24.0079 32.2271 22.9288 32.1577 21.8942 31.8812C20.8595 31.6047 19.8896 31.1266 19.0402 30.4742C18.1908 29.8219 17.4786 29.0083 16.9445 28.08C16.4064 27.154 16.0564 26.1309 15.9148 25.0693C15.7731 24.0077 15.8425 22.9286 16.119 21.894C16.3955 20.8593 16.8736 19.8894 17.5259 19.04C18.1782 18.1906 18.9919 17.4784 19.9202 16.9443C21.1605 16.2277 22.5677 15.8504 24.0002 15.8504C25.4326 15.8504 26.8398 16.2277 28.0802 16.9443L28.7602 15.7543C27.313 14.9188 25.6712 14.4793 24.0002 14.48ZM24.0002 19.92C21.7562 19.92 19.9202 21.7546 19.9202 24C19.9202 26.244 21.7562 28.08 24.0002 28.08C26.2442 28.08 28.0802 26.244 28.0802 24C28.0802 21.7546 26.2442 19.92 24.0002 19.92ZM24.0002 21.28C25.5098 21.28 26.7202 22.4904 26.7202 24C26.7202 25.5096 25.5098 26.72 24.0002 26.72C22.4906 26.72 21.2802 25.5096 21.2802 24C21.2802 22.4904 22.4906 21.28 24.0002 21.28Z" fill="white"/>
</g>
<defs>
<linearGradient id="paint0_linear_182_1674" x1="9.22063" y1="7.45478" x2="38.7575" y2="40.0015" gradientUnits="userSpaceOnUse">
<stop stop-color="#FF1679"/>
<stop offset="1" stop-color="#FF770B"/>
</linearGradient>
<clipPath id="clip0_182_1674">
<rect width="34" height="34" fill="white" transform="translate(7 7)"/>
</clipPath>
</defs>
</svg>
