<svg width="48" height="48" viewBox="0 0 48 48" fill="none" xmlns="http://www.w3.org/2000/svg">
<rect width="48" height="48" fill="black"/>
<path d="M24.4688 21.5625C24.9819 21.5604 25.4731 21.3548 25.8348 20.991L28.0048 18.821C28.3661 18.4601 28.7951 18.1742 29.2673 17.9797C29.7394 17.7851 30.2454 17.6859 30.756 17.6875H32.3448L31.0563 18.075L29.8551 19.2763C29.6751 19.4563 29.5323 19.67 29.4349 19.9052C29.3374 20.1404 29.2873 20.3925 29.2873 20.6471C29.2873 20.9017 29.3374 21.1537 29.4349 21.3889C29.5323 21.6241 29.6751 21.8378 29.8551 22.0179C30.0351 22.1979 30.2488 22.3407 30.484 22.4381C30.7192 22.5355 30.9713 22.5857 31.2259 22.5857C31.4804 22.5857 31.7325 22.5355 31.9677 22.4381C32.2029 22.3407 32.4166 22.1979 32.5966 22.0179L37.4404 17.1741C37.6205 16.9942 37.7634 16.7805 37.8609 16.5453C37.9585 16.3101 38.0086 16.0579 38.0086 15.8033C38.0086 15.5487 37.9585 15.2966 37.8609 15.0614C37.7634 14.8262 37.6205 14.6125 37.4404 14.4325L32.5966 9.58879C32.2331 9.22524 31.74 9.021 31.2259 9.021C30.7117 9.021 30.2186 9.22524 29.8551 9.58879C29.4915 9.95235 29.2873 10.4454 29.2873 10.9596C29.2873 11.4737 29.4915 11.9668 29.8551 12.3304L30.9788 13.4541L32.277 13.8125H30.756C29.738 13.8117 28.7297 14.0115 27.7889 14.4005C26.8481 14.7894 25.9932 15.36 25.2729 16.0794L23.1029 18.2494C22.8302 18.5198 22.6441 18.8652 22.5681 19.2416C22.4921 19.618 22.5297 20.0085 22.676 20.3635C22.8224 20.7186 23.071 21.0221 23.3902 21.2356C23.7094 21.449 24.0848 21.5628 24.4688 21.5625Z" fill="#BA63C6"/>
<path d="M32.5869 24.9725C32.2233 24.6089 31.7302 24.4047 31.2161 24.4047C30.7019 24.4047 30.2089 24.6089 29.8453 24.9725C29.4818 25.3361 29.2775 25.8291 29.2775 26.3433C29.2775 26.8574 29.4818 27.3505 29.8453 27.7141L30.9981 28.8669L32.2962 29.3028H30.7462C30.2372 29.3032 29.7331 29.2033 29.2627 29.0088C28.7923 28.8144 28.3648 28.5291 28.0047 28.1694L18.8209 18.9856C18.1007 18.2662 17.2457 17.6957 16.3049 17.3067C15.3641 16.9177 14.3559 16.718 13.3378 16.7188H10.9062C10.3924 16.7188 9.89958 16.9229 9.53623 17.2862C9.17288 17.6496 8.96875 18.1424 8.96875 18.6563C8.96875 19.1701 9.17288 19.6629 9.53623 20.0263C9.89958 20.3896 10.3924 20.5938 10.9062 20.5938H13.3378C13.8468 20.5934 14.3509 20.6932 14.8214 20.8877C15.2918 21.0822 15.7192 21.3675 16.0794 21.7272L17.8522 23.5L16.0794 25.2728C15.7192 25.6325 15.2918 25.9178 14.8214 26.1123C14.3509 26.3068 13.8468 26.4067 13.3378 26.4063H10.9062C10.3924 26.4063 9.89958 26.6104 9.53623 26.9737C9.17288 27.3371 8.96875 27.8299 8.96875 28.3438C8.96875 28.8576 9.17288 29.3504 9.53623 29.7138C9.89958 30.0771 10.3924 30.2813 10.9062 30.2813H13.3378C14.3559 30.2821 15.3641 30.0823 16.3049 29.6933C17.2457 29.3044 18.1007 28.7338 18.8209 28.0144L20.5937 26.2416L25.2728 30.9206C25.9931 31.6401 26.848 32.2106 27.7889 32.5996C28.7297 32.9885 29.7379 33.1883 30.7559 33.1875H32.2187L30.9594 33.5944L29.8356 34.7181C29.4721 35.0817 29.2678 35.5748 29.2678 36.0889C29.2678 36.6031 29.4721 37.0961 29.8356 37.4597C30.1992 37.8232 30.6923 38.0275 31.2064 38.0275C31.7205 38.0275 32.2136 37.8232 32.5772 37.4597L37.4209 32.6159C37.6011 32.436 37.744 32.2223 37.8415 31.9871C37.939 31.7519 37.9892 31.4998 37.9892 31.2452C37.9892 30.9905 37.939 30.7384 37.8415 30.5032C37.744 30.268 37.6011 30.0543 37.4209 29.8744L32.5869 24.9725Z" fill="#BA63C6"/>
</svg>
