<svg width="48" height="48" viewBox="0 0 48 48" fill="none" xmlns="http://www.w3.org/2000/svg">
<rect width="48" height="48" fill="black"/>
<path d="M35.5938 14.7656V28.875C35.6007 28.9487 35.6007 29.023 35.5938 29.0967C35.6007 29.2265 35.6007 29.3566 35.5938 29.4864C35.5938 31.502 33.4236 33.1817 30.7495 33.1817C29.9152 33.1866 29.0891 33.0173 28.3241 32.6845L28.1427 32.5972C27.5146 32.3428 26.9717 31.9155 26.5768 31.3648C26.182 30.8142 25.9515 30.1628 25.912 29.4864C25.912 27.4708 28.0755 25.7911 30.7495 25.7911C31.4575 25.7896 32.1602 25.9124 32.8256 26.1539V19.8248L21.7598 21.088V30.2188C21.7701 30.2923 21.7701 30.3669 21.7598 30.4405C21.7701 30.5702 21.7701 30.7005 21.7598 30.8302C21.7598 32.8458 19.5964 34.5255 16.9223 34.5255C16.0873 34.5315 15.2605 34.3597 14.4969 34.0216L14.302 33.9342C13.6792 33.6808 13.1403 33.2572 12.747 32.7118C12.3537 32.1664 12.1219 31.5213 12.0781 30.8503C12.0781 28.8347 14.2483 27.155 16.9223 27.155C17.628 27.1543 18.3284 27.2771 18.9917 27.5178V16.6603L35.5938 14.7656Z" fill="#00BFFF"/>
<path d="M22.1562 4.01562V7.375L13.4219 8.40297V18.5214C13.4284 18.5952 13.4284 18.6694 13.4219 18.7431C13.4321 18.8728 13.4321 19.0031 13.4219 19.1328C13.4219 21.1484 11.3189 22.8281 8.71875 22.8281C7.78073 22.8332 6.85652 22.6021 6.03125 22.1562L5.75578 22.0017C5.24619 21.7104 4.8191 21.2942 4.51468 20.7923C4.21026 20.2904 4.03852 19.7194 4.01562 19.1328C4.01563 17.1172 6.11859 15.4375 8.71875 15.4375C9.40693 15.4367 10.0897 15.5596 10.7344 15.8003V5.35938L22.1562 4.01562Z" fill="#FFA500"/>
<path d="M22.1563 5.52051V7.37488L13.4219 8.40285V18.5213C13.4285 18.595 13.4285 18.6692 13.4219 18.743C13.4321 18.8727 13.4321 19.003 13.4219 19.1327C13.4219 21.1483 11.3189 22.828 8.71876 22.828C7.78074 22.8331 6.85653 22.602 6.03126 22.1561L5.75579 22.0016C5.49466 21.5358 5.35813 21.0105 5.35938 20.4764C5.35938 18.4608 7.46235 16.7811 10.0625 16.7811C10.7507 16.7804 11.4334 16.9033 12.0781 17.1439V6.70301L22.1563 5.52051Z" fill="#FCBC56"/>
<path d="M42.9844 26.8594V39.793C42.9834 39.9094 42.9404 40.0215 42.8634 40.1088C42.3864 41.7548 40.5186 42.9844 38.2813 42.9844C37.2508 42.9942 36.2382 42.7149 35.3586 42.1781C34.5489 41.7099 33.9483 40.9507 33.6789 40.055C33.6116 39.8053 33.5777 39.5477 33.5781 39.2891C33.5781 37.2734 35.6811 35.5938 38.2813 35.5938C38.9694 35.593 39.6522 35.7159 40.2969 35.9566V26.8594H42.9844Z" fill="#800080"/>
<path d="M42.9844 28.2031V39.793C42.9834 39.9094 42.9404 40.0215 42.8634 40.1088C42.3864 41.7548 40.5186 42.9844 38.2813 42.9844C37.2508 42.9942 36.2382 42.7149 35.3586 42.1781C35.0726 41.7135 34.9214 41.1784 34.9219 40.6328C34.9219 38.6172 37.0248 36.9375 39.625 36.9375C40.3132 36.9367 40.9959 37.0596 41.6406 37.3003V28.2031H42.9844Z" fill="#AA08B2"/>
<path d="M38.2812 6.70312V7.375" stroke="#FCEE21" stroke-width="2" stroke-miterlimit="10" stroke-linecap="round"/>
<path d="M40.2969 8.71875H39.625" stroke="#FCEE21" stroke-width="2" stroke-miterlimit="10" stroke-linecap="round"/>
<path d="M36.9375 8.71875H36.2656" stroke="#FCEE21" stroke-width="2" stroke-miterlimit="10" stroke-linecap="round"/>
<path d="M38.2812 10.0625V10.7344" stroke="#FCEE21" stroke-width="2" stroke-miterlimit="10" stroke-linecap="round"/>
<path d="M8.71875 36.2656V36.9375" stroke="#FCEE21" stroke-width="2" stroke-miterlimit="10" stroke-linecap="round"/>
<path d="M10.7344 38.2812H10.0625" stroke="#FCEE21" stroke-width="2" stroke-miterlimit="10" stroke-linecap="round"/>
<path d="M7.375 38.2812H6.70312" stroke="#FCEE21" stroke-width="2" stroke-miterlimit="10" stroke-linecap="round"/>
<path d="M8.71875 39.625V40.2969" stroke="#FCEE21" stroke-width="2" stroke-miterlimit="10" stroke-linecap="round"/>
<path d="M27.1953 11.4062C27.7519 11.4062 28.2031 10.955 28.2031 10.3984C28.2031 9.84184 27.7519 9.39062 27.1953 9.39062C26.6387 9.39062 26.1875 9.84184 26.1875 10.3984C26.1875 10.955 26.6387 11.4062 27.1953 11.4062Z" fill="#F08080"/>
<path d="M19.1328 39.625C19.6894 39.625 20.1406 39.1738 20.1406 38.6172C20.1406 38.0606 19.6894 37.6094 19.1328 37.6094C18.5762 37.6094 18.125 38.0606 18.125 38.6172C18.125 39.1738 18.5762 39.625 19.1328 39.625Z" fill="#F08080"/>
<path d="M36.2656 14.0133L18.3198 16.0625V26.6311C17.8579 26.5357 17.3873 26.4884 16.9156 26.49C13.8788 26.49 11.3995 28.4519 11.3995 30.8572C11.3995 33.2625 13.872 35.2244 16.9156 35.2244C19.9592 35.2244 22.4317 33.2625 22.4317 30.8572C22.4384 30.7341 22.4384 30.6108 22.4317 30.4877C22.4383 30.4072 22.4383 30.3263 22.4317 30.2458V21.6861L32.1538 20.5775V25.2806C31.6918 25.1852 31.2212 25.1379 30.7495 25.1396C27.7127 25.1396 25.2334 27.1014 25.2334 29.5067C25.2334 31.9121 27.7059 33.8739 30.7495 33.8739C33.7931 33.8739 36.2656 31.9188 36.2656 29.5067C36.2723 29.3837 36.2723 29.2603 36.2656 29.1372C36.2733 29.05 36.2733 28.9624 36.2656 28.8752V14.0133ZM34.9219 29.2044C34.9287 29.3051 34.9287 29.4061 34.9219 29.5067C34.9219 31.173 33.0541 32.5302 30.7495 32.5302C28.445 32.5302 26.5772 31.1864 26.5772 29.5067C26.5772 27.8271 28.445 26.4833 30.7495 26.4833C31.3796 26.4817 32.005 26.5908 32.5972 26.8058L33.4975 27.135V19.0725L21.088 20.4902V30.2996V30.4205V30.5481C21.0947 30.6488 21.0947 30.7498 21.088 30.8505C21.088 32.5167 19.2202 33.8739 16.9156 33.8739C14.6111 33.8739 12.7433 32.5302 12.7433 30.8505C12.7433 29.1708 14.6111 27.8271 16.9156 27.8271C17.5457 27.8254 18.1711 27.9346 18.7633 28.1495L19.6636 28.4788V17.2652L34.9219 15.5183V28.9558V29.0767V29.2044ZM8.71875 23.5002C11.6817 23.5002 14.0938 21.5383 14.0938 19.133C14.0991 19.0211 14.0991 18.909 14.0938 18.7971C14.1002 18.7166 14.1002 18.6357 14.0938 18.5552V9.00111L22.8281 7.97314V3.27002L10.0625 4.76158V14.9069C9.62071 14.8132 9.17036 14.766 8.71875 14.7658C5.75578 14.7658 3.34375 16.7277 3.34375 19.133C3.34375 21.5383 5.75578 23.5002 8.71875 23.5002ZM8.71875 16.1096C9.32639 16.107 9.92951 16.214 10.4992 16.4253L11.4062 16.7814V5.95752L21.4844 4.7683V6.78393L12.75 7.80518V18.5552V18.6761V18.7971C12.7568 18.8977 12.7568 18.9987 12.75 19.0994C12.75 20.8127 10.9427 22.1564 8.71875 22.1564C6.49484 22.1564 4.6875 20.8127 4.6875 19.133C4.6875 17.4533 6.49484 16.1096 8.71875 16.1096ZM39.625 35.0631C39.1832 34.9695 38.7329 34.9222 38.2812 34.9221C35.3183 34.9221 32.9062 36.8839 32.9062 39.2892C32.9062 41.6946 35.3183 43.6564 38.2812 43.6564C40.7403 43.6564 42.8567 42.3127 43.4748 40.4113C43.5934 40.2269 43.6563 40.0123 43.6562 39.7931V26.1877H39.625V35.0631ZM40.9688 36.9377V27.5314H42.3125V39.7192L42.2587 39.7864L42.2184 39.9208C41.822 41.3049 40.1625 42.3127 38.2812 42.3127C36.0573 42.3127 34.25 40.9689 34.25 39.2892C34.25 37.6096 36.0573 36.2658 38.2812 36.2658C38.8889 36.2633 39.492 36.3703 40.0617 36.5816L40.9688 36.9377ZM38.2812 8.04705C38.4594 8.04705 38.6303 7.97626 38.7563 7.85026C38.8823 7.72426 38.9531 7.55337 38.9531 7.37518V6.7033C38.9531 6.52511 38.8823 6.35421 38.7563 6.22821C38.6303 6.10221 38.4594 6.03143 38.2812 6.03143C38.1031 6.03143 37.9322 6.10221 37.8062 6.22821C37.6802 6.35421 37.6094 6.52511 37.6094 6.7033V7.37518C37.6094 7.55337 37.6802 7.72426 37.8062 7.85026C37.9322 7.97626 38.1031 8.04705 38.2812 8.04705ZM39.625 9.3908H40.2969C40.4751 9.3908 40.646 9.32001 40.772 9.19401C40.898 9.06801 40.9688 8.89712 40.9688 8.71893C40.9688 8.54073 40.898 8.36984 40.772 8.24384C40.646 8.11784 40.4751 8.04705 40.2969 8.04705H39.625C39.4468 8.04705 39.2759 8.11784 39.1499 8.24384C39.0239 8.36984 38.9531 8.54073 38.9531 8.71893C38.9531 8.89712 39.0239 9.06801 39.1499 9.19401C39.2759 9.32001 39.4468 9.3908 39.625 9.3908ZM36.2656 9.3908H36.9375C37.1157 9.3908 37.2866 9.32001 37.4126 9.19401C37.5386 9.06801 37.6094 8.89712 37.6094 8.71893C37.6094 8.54073 37.5386 8.36984 37.4126 8.24384C37.2866 8.11784 37.1157 8.04705 36.9375 8.04705H36.2656C36.0874 8.04705 35.9165 8.11784 35.7905 8.24384C35.6645 8.36984 35.5938 8.54073 35.5938 8.71893C35.5938 8.89712 35.6645 9.06801 35.7905 9.19401C35.9165 9.32001 36.0874 9.3908 36.2656 9.3908ZM38.2812 9.3908C38.1031 9.3908 37.9322 9.46159 37.8062 9.58759C37.6802 9.71359 37.6094 9.88448 37.6094 10.0627V10.7346C37.6094 10.9127 37.6802 11.0836 37.8062 11.2096C37.9322 11.3356 38.1031 11.4064 38.2812 11.4064C38.4594 11.4064 38.6303 11.3356 38.7563 11.2096C38.8823 11.0836 38.9531 10.9127 38.9531 10.7346V10.0627C38.9531 9.88448 38.8823 9.71359 38.7563 9.58759C38.6303 9.46159 38.4594 9.3908 38.2812 9.3908ZM8.71875 35.5939C8.54056 35.5939 8.36966 35.6647 8.24366 35.7907C8.11766 35.9167 8.04688 36.0876 8.04688 36.2658V36.9377C8.04688 37.1159 8.11766 37.2868 8.24366 37.4128C8.36966 37.5388 8.54056 37.6096 8.71875 37.6096C8.89694 37.6096 9.06784 37.5388 9.19384 37.4128C9.31984 37.2868 9.39062 37.1159 9.39062 36.9377V36.2658C9.39062 36.0876 9.31984 35.9167 9.19384 35.7907C9.06784 35.6647 8.89694 35.5939 8.71875 35.5939ZM10.0625 38.9533H10.7344C10.9126 38.9533 11.0835 38.8825 11.2095 38.7565C11.3355 38.6305 11.4062 38.4596 11.4062 38.2814C11.4062 38.1032 11.3355 37.9323 11.2095 37.8063C11.0835 37.6803 10.9126 37.6096 10.7344 37.6096H10.0625C9.88431 37.6096 9.71341 37.6803 9.58741 37.8063C9.46141 37.9323 9.39062 38.1032 9.39062 38.2814C9.39062 38.4596 9.46141 38.6305 9.58741 38.7565C9.71341 38.8825 9.88431 38.9533 10.0625 38.9533ZM7.375 37.6096H6.70312C6.52493 37.6096 6.35404 37.6803 6.22804 37.8063C6.10204 37.9323 6.03125 38.1032 6.03125 38.2814C6.03125 38.4596 6.10204 38.6305 6.22804 38.7565C6.35404 38.8825 6.52493 38.9533 6.70312 38.9533H7.375C7.55319 38.9533 7.72409 38.8825 7.85009 38.7565C7.97609 38.6305 8.04688 38.4596 8.04688 38.2814C8.04688 38.1032 7.97609 37.9323 7.85009 37.8063C7.72409 37.6803 7.55319 37.6096 7.375 37.6096ZM8.04688 40.2971C8.04688 40.4752 8.11766 40.6461 8.24366 40.7721C8.36966 40.8981 8.54056 40.9689 8.71875 40.9689C8.89694 40.9689 9.06784 40.8981 9.19384 40.7721C9.31984 40.6461 9.39062 40.4752 9.39062 40.2971V39.6252C9.39062 39.447 9.31984 39.2761 9.19384 39.1501C9.06784 39.0241 8.89694 38.9533 8.71875 38.9533C8.54056 38.9533 8.36966 39.0241 8.24366 39.1501C8.11766 39.2761 8.04688 39.447 8.04688 39.6252V40.2971ZM27.1953 12.0783C27.5275 12.0783 27.8523 11.9798 28.1285 11.7952C28.4047 11.6107 28.62 11.3483 28.7471 11.0414C28.8743 10.7345 28.9075 10.3967 28.8427 10.0709C28.7779 9.74509 28.6179 9.4458 28.383 9.21089C28.1481 8.97599 27.8488 8.81601 27.523 8.7512C27.1972 8.68639 26.8594 8.71965 26.5525 8.84678C26.2456 8.97392 25.9833 9.18921 25.7987 9.46543C25.6141 9.74165 25.5156 10.0664 25.5156 10.3986C25.5156 10.8441 25.6926 11.2713 26.0076 11.5863C26.3226 11.9013 26.7498 12.0783 27.1953 12.0783ZM27.1953 10.0627C27.2618 10.0627 27.3267 10.0824 27.382 10.1193C27.4372 10.1562 27.4803 10.2087 27.5057 10.2701C27.5311 10.3314 27.5378 10.399 27.5248 10.4642C27.5118 10.5293 27.4798 10.5892 27.4329 10.6362C27.3859 10.6831 27.326 10.7151 27.2609 10.7281C27.1957 10.7411 27.1281 10.7344 27.0668 10.709C27.0054 10.6836 26.9529 10.6405 26.916 10.5853C26.8791 10.53 26.8594 10.4651 26.8594 10.3986C26.8594 10.3095 26.8948 10.2241 26.9578 10.1611C27.0208 10.0981 27.1062 10.0627 27.1953 10.0627ZM20.8125 38.6174C20.8125 38.2852 20.714 37.9604 20.5294 37.6842C20.3449 37.408 20.0825 37.1927 19.7756 37.0655C19.4687 36.9384 19.1309 36.9051 18.8051 36.97C18.4793 37.0348 18.18 37.1947 17.9451 37.4296C17.7102 37.6646 17.5502 37.9638 17.4854 38.2897C17.4206 38.6155 17.4539 38.9532 17.581 39.2602C17.7081 39.5671 17.9234 39.8294 18.1996 40.014C18.4759 40.1985 18.8006 40.2971 19.1328 40.2971C19.5783 40.2971 20.0055 40.1201 20.3205 39.8051C20.6355 39.4901 20.8125 39.0628 20.8125 38.6174ZM18.7969 38.6174C18.7969 38.5509 18.8166 38.486 18.8535 38.4307C18.8904 38.3755 18.9429 38.3324 19.0043 38.307C19.0656 38.2816 19.1332 38.2749 19.1984 38.2879C19.2635 38.3008 19.3234 38.3328 19.3704 38.3798C19.4173 38.4268 19.4493 38.4867 19.4623 38.5518C19.4753 38.617 19.4686 38.6845 19.4432 38.7459C19.4178 38.8073 19.3747 38.8598 19.3194 38.8967C19.2642 38.9336 19.1993 38.9533 19.1328 38.9533C19.0437 38.9533 18.9583 38.9179 18.8953 38.8549C18.8323 38.7919 18.7969 38.7065 18.7969 38.6174Z" fill="black"/>
</svg>
