<svg width="48" height="48" viewBox="0 0 48 48" fill="none" xmlns="http://www.w3.org/2000/svg">
<g clip-path="url(#clip0_182_1623)">
<rect width="48" height="48" fill="black"/>
<path d="M10.7544 39.3526C10.7435 39.4602 10.7188 39.5606 10.6686 39.6406C10.413 40.0504 9.78715 39.7002 9.41406 39.6253C8.3086 39.4035 7.11333 39.6726 6.21006 40.3478C5.53697 40.8507 5.19733 41.6806 5.28715 42.5115C5.33186 42.9211 5.47305 43.3143 5.69915 43.6587C5.90133 43.966 6.23406 44.3558 6.56097 44.5267C7.23151 44.8769 8.09915 44.9984 8.8446 45.0133C9.43365 45.0253 10.0214 44.9526 10.5897 44.7973C10.9424 44.7006 11.2806 44.6118 11.5751 44.39C11.9748 44.09 12.2642 43.6686 12.477 43.2213C13.0333 42.0526 13.165 40.6915 13.2293 39.4155C13.3075 37.8584 13.2406 36.2962 13.1555 34.7409C13.0781 33.3296 12.965 31.9176 12.9471 30.5038C12.9404 30.139 12.9472 29.774 12.9675 29.4096C12.9971 28.9363 13.184 28.4865 13.4985 28.1315C13.813 27.7766 14.2372 27.537 14.7035 27.4507C16.6377 27.0911 18.3977 26.858 20.2715 26.2391C20.8064 26.0624 21.357 26.4664 21.357 27.03V35.614C20.1577 35.3849 19.5042 35.2784 18.3061 35.5126C16.8842 35.7904 15.5097 36.6489 15.885 38.5962C15.9537 38.9515 16.0795 39.2944 16.2417 39.618C16.453 40.0384 16.7188 40.4391 17.0668 40.7576C17.5919 41.2395 18.2832 41.5122 18.9861 41.6304C19.9192 41.7882 21.0108 41.8086 21.8922 41.426L21.9126 41.4169C23.0133 40.9311 23.6693 39.8926 23.6693 38.7976V23.8384C23.6693 22.4013 22.2431 21.5227 20.9253 21.6213C19.2235 21.7486 12.9817 23.6176 11.8319 24.4362C11.2584 24.8442 10.7141 25.422 10.5228 26.1162C10.2701 27.0315 10.4239 27.9078 10.4617 28.8253C10.5031 29.8406 10.5341 30.8566 10.5708 31.8722C10.629 33.4867 10.681 35.1024 10.7155 36.718C10.7301 37.3893 10.7417 38.0606 10.7446 38.7322C10.7457 38.9075 10.7759 39.1442 10.7544 39.3526Z" fill="#FF5C5C"/>
<path d="M12.1164 43.8803C11.9642 44.091 11.7819 44.2784 11.5753 44.4363C11.2819 44.6581 10.9419 44.7465 10.5892 44.8443C10.0223 44.9995 9.43316 45.0715 8.84589 45.0588C8.09971 45.0457 7.23207 44.9235 6.56153 44.5726C6.23462 44.401 5.90225 44.0134 5.69934 43.705C5.47348 43.3605 5.3323 42.9675 5.28734 42.5581C5.1968 41.7268 5.5368 40.8977 6.21098 40.3937C6.67397 40.0506 7.20541 39.8113 7.76916 39.6919C7.56137 39.9403 7.40611 40.2283 7.3128 40.5385C7.21948 40.8486 7.19004 41.1744 7.22625 41.4963C7.27126 41.9056 7.41244 42.2985 7.63825 42.6428C7.84116 42.9515 8.17389 43.3392 8.50044 43.5108C9.17098 43.8617 10.0386 43.9835 10.7848 43.9966C11.2316 44.006 11.6781 43.967 12.1164 43.8803ZM20.9866 21.5603C19.2841 21.6875 13.0441 23.5566 11.8935 24.3745C11.7386 24.4835 11.587 24.6054 11.443 24.7399C13.7404 23.8501 17.7364 22.7195 19.0477 22.6217C20.3663 22.5221 21.7921 23.401 21.7921 24.8381V36.7083C21.7921 37.121 21.7695 37.5337 21.7568 37.9461C21.7477 38.245 21.7364 38.5537 21.6292 38.8366C21.5135 39.1421 21.2841 39.3435 21.0619 39.5712C20.6132 40.0301 19.8193 39.9406 19.263 39.7654C18.7739 39.6112 18.3939 39.209 18.1546 38.7552C17.9983 38.4581 17.8939 38.1374 17.8084 37.8134C17.7324 37.5257 17.7292 37.2908 17.7186 36.9995C17.7077 36.7028 17.7353 36.4065 17.8284 36.1232C17.8673 36.0043 18.0313 35.5148 18.1717 35.485C16.7812 35.7806 15.4699 36.6428 15.8393 38.5505C15.9077 38.905 16.0332 39.2486 16.1957 39.5719C16.4066 39.993 16.6721 40.3937 17.0212 40.7112C17.5459 41.1934 18.2364 41.4665 18.9401 41.5846C19.6321 41.701 20.411 41.7417 21.1277 41.5992L21.1233 41.6046C21.409 41.5582 21.6881 41.4776 21.9546 41.3646C21.9601 41.361 21.9673 41.3588 21.9746 41.3552C23.0753 40.8694 23.731 39.8315 23.731 38.7366V23.7759C23.731 22.3395 22.3055 21.4606 20.9866 21.5603Z" fill="#EE3C37"/>
<path d="M12.9901 13.6696C12.848 13.2951 12.6596 12.9256 12.4541 12.5635C12.3523 12.3878 12.2429 12.2118 12.1196 12.0355C11.9938 11.8525 11.9076 11.7336 11.7632 11.5518C11.276 10.9373 10.7131 10.4013 10.1625 9.96382C9.68526 9.5883 9.1803 9.2494 8.65196 8.95C8.29695 8.74786 7.93267 8.56245 7.56033 8.39437L7.26469 8.26346C7.1054 8.15842 6.9167 8.10708 6.72615 8.11691L6.65342 8.12055C6.16433 8.14673 5.78978 8.55437 5.81487 9.03328L6.51342 22.2104C5.82542 21.9158 5.00542 21.7642 4.13633 21.8104C1.81669 21.9333 0.00796388 23.4067 0.0974184 25.1002C0.187237 26.7933 2.14178 28.0675 4.46142 27.9442L4.51924 27.9413C6.72651 27.8013 8.39996 25.9158 8.30469 23.7507L7.87415 13.8969L7.70215 9.94237C7.77633 9.97182 7.85015 10.0009 7.92796 10.0336C8.81415 10.4038 10.0145 11.0529 11.0087 12.042C11.1178 12.1471 11.2832 12.3235 11.3905 12.4478C11.5091 12.5795 11.6254 12.7231 11.7396 12.8733C11.9658 13.1769 12.1832 13.4951 12.3603 13.8238C12.7145 14.4588 12.9761 15.1411 13.1374 15.85C13.2101 16.1795 13.2516 16.4875 13.2789 16.7664C13.2949 17.0464 13.3058 17.2965 13.2945 17.4998C13.2952 17.7104 13.2694 17.8682 13.2611 17.9809L13.244 18.1536L13.2887 17.9936C13.3152 17.8885 13.368 17.7409 13.4014 17.5391C13.4461 17.3442 13.4756 17.1009 13.5047 16.8209C13.5218 16.5427 13.5291 16.2285 13.5054 15.8838C13.4468 15.1239 13.2731 14.3773 12.9901 13.6696Z" fill="#FBE000"/>
<path d="M4.27131 26.731C5.59835 26.6607 6.63033 25.7769 6.5763 24.7569C6.52228 23.7369 5.4027 22.967 4.07567 23.0373C2.74863 23.1076 1.71665 23.9914 1.77068 25.0114C1.8247 26.0314 2.94428 26.8013 4.27131 26.731Z" fill="#FFF036"/>
<path d="M43.4045 25.1556C43.1936 24.7119 42.9278 24.2785 42.6409 23.8563C42.4959 23.6457 42.342 23.4414 42.1798 23.2439C42.0262 23.0525 41.8653 22.8671 41.6972 22.6883C41.0412 21.985 40.3012 21.3854 39.5856 20.9054C38.9656 20.4932 38.3154 20.1286 37.6405 19.8145C37.1869 19.6025 36.7236 19.4119 36.2521 19.2432L35.8776 19.1119C35.6727 18.9994 35.4373 18.9553 35.2056 18.9861L35.1172 18.9981C34.5219 19.0777 34.1045 19.6126 34.1827 20.1952L36.3299 36.2268C35.4601 35.9341 34.4438 35.8294 33.3863 35.9712C30.5645 36.3494 28.499 38.3268 28.7747 40.3872C29.051 42.4476 31.5638 43.8119 34.3856 43.4337L34.4561 43.4243C37.139 43.0363 38.9987 40.5683 38.6696 37.9326L37.3216 27.1036L37.5798 27.1683L37.7929 27.2214C37.8292 27.2316 37.8765 27.2403 37.9092 27.2526L38.0096 27.2912C38.1492 27.3476 38.3092 27.3945 38.4896 27.4719C38.667 27.5672 38.8714 27.6537 39.0736 27.7756L39.5263 28.0668C39.5309 28.0698 39.5354 28.0729 39.5398 28.0763C39.5903 28.1163 39.6416 28.1563 39.6925 28.197L40.0089 28.4454C40.1107 28.5363 40.2107 28.633 40.3143 28.7283C40.5274 28.9126 40.7085 29.1385 40.9096 29.3483C41.0889 29.5763 41.2852 29.7952 41.4474 30.0356C41.5307 30.1537 41.6172 30.269 41.6969 30.3876L41.9259 30.7436C42.075 30.9788 42.2081 31.2141 42.3347 31.4381C42.4561 31.6646 42.5732 31.8788 42.6714 32.0817C42.8743 32.4854 43.0267 32.8308 43.1354 33.0723L43.3027 33.4534L43.2023 33.049C43.1361 32.7926 43.0445 32.4243 42.911 31.9872C42.8481 31.7672 42.7678 31.5326 42.6845 31.2828C42.5933 31.0214 42.4953 30.7624 42.3907 30.5061L42.2183 30.0996C42.1576 29.9632 42.0885 29.8283 42.0227 29.6897C41.5252 28.6446 41.0801 27.7341 40.0023 26.7454C39.3732 26.1683 38.2532 25.7726 37.5794 25.5756C37.4406 25.5343 37.3169 25.4533 37.2236 25.3426C37.1302 25.232 37.0713 25.0964 37.0539 24.9526L36.5776 21.1206C36.6707 21.1494 36.7638 21.1777 36.8623 21.2101C37.9816 21.5752 39.5118 22.2505 40.8238 23.3614C40.9674 23.4788 41.1863 23.6785 41.3299 23.8196C41.4874 23.9686 41.6438 24.1326 41.7983 24.305C42.1045 24.6541 42.4016 25.021 42.6499 25.4057C43.1834 26.1966 43.5572 27.0392 43.7983 27.8046C43.9081 28.1675 43.9959 28.5367 44.0612 28.9101C44.1085 29.2508 44.1463 29.5556 44.1521 29.805C44.1739 30.0621 44.1579 30.2577 44.1587 30.3963L44.1547 30.609L44.1939 30.409C44.2161 30.2781 44.2659 30.0926 44.2867 29.8428C44.3223 29.6003 44.3343 29.2999 44.3427 28.9548C44.3373 28.5717 44.3068 28.1893 44.2514 27.8101C44.1052 26.8875 43.8196 25.9924 43.4045 25.1556Z" fill="#6FCCCF"/>
<path d="M41.8569 22.7552C41.488 22.441 41.1012 22.1483 40.6984 21.8789C40.0781 21.4662 39.4274 21.1013 38.7518 20.7872C38.2984 20.5757 37.8356 20.3849 37.3649 20.2152C37.2016 20.1585 37.0754 20.1152 36.9904 20.0851C36.7851 19.9718 36.5489 19.9275 36.3165 19.9585L36.23 19.9712C35.6347 20.0505 35.2154 20.5851 35.2947 21.1683L37.3405 36.4469C37.3863 36.7887 37.0834 37.0811 36.7449 37.012C36.0482 36.8694 35.2849 36.8392 34.4976 36.9451C31.6758 37.3225 29.6114 39.3003 29.8867 41.3607C29.9409 41.764 30.0818 42.1509 30.2998 42.4945C29.4307 41.944 28.8442 41.1523 28.7187 40.2152C28.442 38.1552 30.5067 36.1774 33.33 35.7992C34.3871 35.6578 35.4027 35.7614 36.2743 36.0549L34.1253 20.0236C34.0478 19.4392 34.4653 18.9054 35.0605 18.8265L35.1493 18.8145C35.3914 18.7818 35.6242 18.8327 35.8213 18.94C35.9064 18.9701 36.0322 19.0138 36.1958 19.0701C36.5467 19.1945 37.014 19.3792 37.5842 19.6418C38.2588 19.9566 38.9089 20.3216 39.5289 20.7338C40.2434 21.2138 40.9834 21.8123 41.6398 22.5156C41.7227 22.6043 41.7918 22.68 41.8569 22.7552Z" fill="#9EE5E3"/>
<path d="M31.4936 5.3973L31.6915 9.94385L32.0867 18.9897C32.1744 20.9769 30.6747 22.7053 28.694 22.8311L28.6424 22.834C26.5613 22.9438 24.8064 21.7722 24.7242 20.2177C24.642 18.6631 26.2638 17.3129 28.3449 17.2031C29.1249 17.162 29.8605 17.302 30.4784 17.5733L29.8391 5.47694C29.8334 5.37264 29.8483 5.26825 29.8831 5.16973C29.9178 5.07122 29.9716 4.98052 30.0414 4.90283C30.1112 4.82514 30.1957 4.76198 30.2899 4.71698C30.3842 4.67198 30.4864 4.64602 30.5907 4.64058L30.6558 4.63694C30.7609 4.63117 30.8661 4.64631 30.9652 4.68149C31.0644 4.71667 31.1556 4.77119 31.2335 4.84189C31.3115 4.91259 31.3746 4.99805 31.4192 5.09333C31.4639 5.18861 31.4892 5.29181 31.4936 5.39694V5.3973Z" fill="#FFEFE1"/>
<path d="M31.4936 5.3973L31.6914 9.94385C31.6112 9.89686 31.5428 9.83219 31.4914 9.75476C31.406 9.63185 31.3598 9.48603 31.3118 9.34421C31.1398 8.82395 30.9448 8.31156 30.7274 7.80858C30.5914 7.49221 30.4442 7.17876 30.2503 6.89476C30.1376 6.72749 30.0085 6.57076 29.8885 6.40967L29.8391 5.47694C29.8334 5.37264 29.8483 5.26825 29.883 5.16973C29.9178 5.07122 29.9716 4.98052 30.0414 4.90283C30.1112 4.82514 30.1957 4.76198 30.2899 4.71698C30.3842 4.67198 30.4864 4.64602 30.5907 4.64058L30.6558 4.63694C30.7609 4.63117 30.866 4.64631 30.9652 4.68149C31.0644 4.71667 31.1556 4.77119 31.2335 4.84189C31.3114 4.91259 31.3746 4.99805 31.4192 5.09333C31.4639 5.18861 31.4892 5.29181 31.4936 5.39694V5.3973Z" fill="#FDE4CB"/>
<path d="M28.4713 21.7196C29.662 21.6567 30.5871 20.8468 30.5376 19.9106C30.4881 18.9744 29.4828 18.2665 28.2921 18.3294C27.1015 18.3924 26.1763 19.2023 26.2258 20.1384C26.2753 21.0746 27.2806 21.7825 28.4713 21.7196Z" fill="#FDE4CB"/>
<path d="M45.9657 21.2578C46.1111 21.2251 46.2057 21.0796 46.1766 20.9342C46.038 20.3029 45.4122 21.3411 40.1948 21.0032C40.1948 21.0032 40.1911 21.0032 40.1911 20.9996C38.4544 19.7291 35.8075 18.6327 35.1693 18.716L35.082 18.7269C34.3402 18.8287 33.8129 19.5014 33.9111 20.2323L33.9366 20.4287C33.3511 20.3851 32.762 20.3596 32.1766 20.3487C32.5147 19.2887 32.2915 18.6396 32.2529 16.5305C36.8035 16.6142 41.5053 17.8396 45.9657 16.8905C46.3231 16.8098 46.1984 16.2782 45.8529 16.356C41.4918 17.2891 36.8035 16.0636 32.2275 15.9814L31.7657 5.38507C31.7548 5.0978 31.6311 4.83234 31.4166 4.63961C31.2057 4.44689 30.9293 4.34871 30.642 4.36689L30.5766 4.37052C30.2941 4.38538 30.0291 4.51163 29.8396 4.72158C29.6501 4.93153 29.5516 5.20805 29.5657 5.49052L30.122 16.036C26.9184 16.2578 23.8238 17.1342 20.8238 17.9814L20.1693 18.1669C16.4162 19.2236 12.3318 20.2672 8.40566 19.836L7.99475 10.3596C11.2249 11.78 13.338 14.6349 12.9729 18.1269C12.9395 18.452 13.4115 18.5505 13.5075 18.2287C13.5897 17.8792 13.6809 17.7632 13.7766 16.8396C14.1409 11.0007 7.67838 7.7887 6.71111 7.84689L6.63838 7.85052C6.00348 7.88034 5.50638 8.42252 5.54384 9.04689L6.09293 19.4105C3.55111 18.7305 1.51838 17.4142 0.558384 15.7305C0.387475 15.4225 -0.0917972 15.6796 0.0856573 15.9996C1.13657 17.8433 3.36202 19.2723 6.12202 19.9778L6.2202 21.8069C4.9522 21.3909 3.4642 21.4454 2.23475 21.956C0.482021 20.6142 0.670385 19.7276 0.187476 19.996C0.0565664 20.0723 0.01293 20.2396 0.0856573 20.3705C0.471112 21.0469 1.01657 21.6651 1.68929 22.2142C-1.82707 24.2236 -0.112525 28.3952 4.53657 28.2142H4.55475C6.3162 28.9007 8.25584 29.2105 10.202 29.2105C10.2533 30.4651 10.3075 32.3007 10.3366 33.036C6.66966 33.036 2.26566 31.8243 0.558384 28.8323C0.386384 28.5229 -0.0928881 28.7836 0.0856573 29.1051C1.94093 32.3531 6.47257 33.5396 10.3547 33.5814C10.4002 34.8992 10.5046 39.1683 10.482 39.3269C10.4457 39.7974 9.96566 39.4552 9.46748 39.3596C7.34275 38.9331 4.7642 40.2167 5.01657 42.5414C5.11766 43.5072 5.81075 44.4414 6.43475 44.7705C8.0762 45.6258 10.8115 45.2942 11.7402 44.6105C14.1355 42.8138 13.5151 36.5523 13.3475 33.3669C16.2995 32.976 19.1097 32.1171 21.0857 31.5778V35.2869C20.0566 35.0978 19.3802 35.0251 18.2529 35.2469C14.5984 35.9592 15.1657 39.3905 16.882 40.9596C18.1533 42.1243 20.6464 42.2629 22.0238 41.6687C23.1875 41.1523 23.9438 40.0251 23.9438 38.7996V30.796C26.2457 30.196 28.5984 29.716 31.002 29.636C32.3875 29.5887 33.7984 29.6796 35.1948 29.8105L36.0057 35.8469C33.8878 35.2942 31.3111 35.8396 29.7293 37.3523C28.7947 38.2469 28.3584 39.3378 28.5038 40.4251C28.6493 41.5087 29.3584 42.4469 30.4966 43.0651C31.3511 43.5305 32.3729 43.7705 33.4457 43.7705C33.7657 43.7705 34.0929 43.7487 34.4202 43.7051L34.4966 43.6942C37.2966 43.2905 39.2893 40.6905 38.9402 37.9014L37.9693 30.0905C39.082 30.2032 40.202 30.3014 41.3257 30.3378C41.8686 31.0356 42.4842 32.292 42.8493 33.0978L43.0529 33.5632C43.1111 33.6942 43.2566 33.7596 43.3911 33.7123C43.5257 33.6651 43.602 33.5269 43.5693 33.3887L43.4457 32.8978C43.3624 32.5672 43.2715 32.2387 43.1729 31.9123C42.9711 31.1996 42.634 30.3865 42.6202 30.3487C43.0457 30.3414 43.4675 30.3232 43.8893 30.2869C43.8857 30.324 43.8824 30.5669 43.882 30.6032C43.8737 30.9291 44.354 30.9923 44.4238 30.6614C44.4377 30.5851 44.4846 30.3258 44.5111 30.2287C44.9984 30.1742 45.4857 30.0942 45.9657 29.9923C46.1111 29.9596 46.2057 29.8142 46.1766 29.6687C46.1604 29.5985 46.1176 29.5374 46.0573 29.498C45.9969 29.4587 45.9237 29.4443 45.8529 29.4578C45.4347 29.5487 45.0093 29.6178 44.5838 29.6687C44.7006 28.3592 44.4729 27.0942 44.0275 25.9087C44.6784 25.8542 45.3257 25.7633 45.9657 25.6251C46.3158 25.5462 46.2075 25.0192 45.8529 25.0905C45.1802 25.236 44.4966 25.3269 43.8093 25.3778C43.2293 24.0523 42.2747 22.7258 40.9366 21.5851C42.6275 21.6651 44.3184 21.6105 45.9657 21.2578ZM34.0129 20.9814L34.5293 24.8396C31.1122 24.5556 28.5126 24.688 23.9438 25.8651C23.8333 24.3014 24.2766 23.248 23.2857 22.2323C23.8857 22.0723 24.4893 21.916 25.0966 21.7742C26.7038 23.6971 30.5849 23.7058 31.962 20.8942C32.642 20.8978 33.3293 20.9305 34.0129 20.9814ZM30.1111 5.46507C30.0966 5.17416 30.3184 4.92689 30.6057 4.91234L30.6711 4.90871C30.8129 4.90143 30.9475 4.95234 31.0493 5.04325C31.1547 5.1378 31.2166 5.26871 31.2202 5.41052L31.682 15.9778C31.5824 17.9767 32.2297 19.3789 31.3438 20.8978C30.7911 21.8323 29.8166 22.4869 28.682 22.5596L28.6275 22.5632C26.9784 22.6454 25.0831 21.7803 24.9984 20.2032C24.922 18.8032 26.4311 17.5778 28.3584 17.476C30.066 17.4054 30.3173 18.0156 30.6347 17.7996C30.8471 17.6476 30.7075 17.4298 30.6966 16.5487L30.6675 16.0032L30.1111 5.46507ZM20.3147 18.6905L20.9729 18.5051C23.9402 17.6687 27.0057 16.8032 30.1511 16.5814L30.1838 17.1705C26.8573 16.0614 23.3518 18.7305 24.7584 21.2905C24.0857 21.4542 23.4202 21.6287 22.762 21.8069C22.2062 21.4627 21.556 21.3024 20.9038 21.3487C19.1351 21.4818 12.3569 23.5243 11.6275 24.2542C10.7755 24.2876 9.83657 24.3512 8.56929 24.2178C8.59984 23.7792 8.57148 23.8451 8.43111 20.3887C12.434 20.8032 16.5809 19.7414 20.3147 18.6905ZM0.376566 25.196V25.1923C0.149657 22.9272 3.65475 21.2796 6.40566 22.4614C6.49293 22.4978 6.59111 22.4869 6.67111 22.436C6.83475 22.3189 6.83693 23.1705 6.08566 9.0178C6.07838 8.86143 6.13293 8.70871 6.24202 8.59234C6.44493 8.36871 6.70384 8.39634 6.7402 8.38871C6.98057 8.37525 7.11838 8.50289 7.15475 8.51234C7.22748 8.55743 11.3369 10.1458 12.7366 13.7669V13.7705C12.8238 13.9923 12.9038 14.2178 12.9693 14.4505C12.0195 12.1705 10.0406 10.5513 7.80202 9.69052C7.62202 9.61234 7.41584 9.75852 7.43111 9.95598C8.09184 25.1422 8.08311 24.0803 7.95475 24.6978C7.01875 29.072 0.699112 28.1014 0.376566 25.196ZM5.60566 28.0069C7.07475 27.5232 8.19111 26.2723 8.49657 24.7632C9.3185 24.839 10.1445 24.8609 10.9693 24.8287C9.89948 25.9749 10.1064 27.1625 10.1802 28.6687C9.92566 28.6687 7.08457 28.4629 5.60566 28.0069ZM20.8202 31.0869L20.1693 31.2687C17.8711 31.916 15.602 32.516 13.3111 32.8214C13.2649 32.0094 13.122 29.6218 13.3184 28.9996C15.7162 28.6869 18.8126 27.8931 21.0857 27.2105V31.0105L20.8202 31.0869ZM13.6238 28.4105C14.5246 27.2294 16.2275 27.8647 20.3584 26.4978C20.6009 26.4185 20.8478 26.5272 20.9584 26.6796C20.3286 26.8371 16.7871 27.9523 13.6238 28.4105ZM23.3984 38.7996C23.3984 39.8105 22.7693 40.7414 21.7838 41.1778C20.6046 41.6876 18.3337 41.5516 17.2493 40.556C16.0002 39.4014 15.0362 36.4309 18.3584 35.7814C20.5195 35.3545 21.6311 36.2912 21.6311 35.6142V27.0287C21.6311 26.2734 20.8857 25.7458 20.1875 25.9814C14.9638 27.7007 12.602 26.1251 12.6747 30.5087C12.7089 34.2563 13.9253 42.2607 11.4129 44.1742C10.6318 44.7483 8.12857 45.0374 6.68929 44.2869C6.40566 44.1378 6.1002 43.7742 5.92566 43.5087C4.6162 41.5087 6.77002 39.3829 9.36202 39.8942C9.69584 39.9574 10.5093 40.4102 10.9002 39.7851C11.1049 39.4614 11.0166 38.9996 11.0166 38.7305C10.9693 30.0091 10.4507 27.396 10.7875 26.1887C11.0766 25.112 12.0777 24.5262 13.1111 24.1087C13.1147 24.1087 13.1147 24.1051 13.1184 24.1051C15.3075 23.2178 19.6129 21.996 20.9475 21.8942C21.2893 21.8651 21.6347 21.916 21.9584 22.0287H21.962C23.9617 22.6854 23.2493 24.4971 23.3984 26.0069V38.7996ZM30.9838 29.0905C28.5766 29.1705 26.2347 29.6432 23.9438 30.2323V26.4287C28.602 25.2214 31.1387 25.0985 34.602 25.3923L35.122 29.2542C33.7475 29.1305 32.3584 29.0469 30.9838 29.0905ZM37.9002 29.5342L37.642 27.4651C38.9391 27.7967 40.3566 28.9534 40.9038 29.7742C39.9002 29.7305 38.8966 29.636 37.9002 29.5342ZM42.3802 29.8069C41.6369 28.132 40.7078 26.5894 39.042 25.8287C40.2566 25.9342 41.4748 26.0069 42.6857 25.9814C43.3613 27.1098 43.8013 28.4331 43.8784 29.7414C43.3802 29.7814 42.882 29.8032 42.3802 29.8069ZM36.9002 21.5123C39.0369 22.2334 41.082 23.5472 42.3438 25.4396C40.7002 25.4469 39.0347 25.2869 37.3984 25.116C37.2929 24.9625 37.3627 25.0909 36.9002 21.5123ZM43.1584 25.2723C43.1584 25.276 43.1584 25.276 43.162 25.2796C43.426 25.852 43.6329 26.3331 43.8129 27.0323C42.5177 23.8411 39.93 21.8854 36.6566 20.8614C36.6133 20.8479 36.5673 20.8455 36.5228 20.8544C36.4783 20.8633 36.4368 20.8832 36.402 20.9123C36.2268 21.0596 36.2769 20.9134 36.7947 25.0542C37.1002 26.684 39.4224 24.8225 41.7729 29.8032L41.7766 29.8069C42.8377 32.1389 41.15 27.8545 37.8966 26.9669L37.8311 27.2323L37.8602 26.956L37.3875 26.8396C37.3445 26.8292 37.2996 26.8294 37.2567 26.84C37.2137 26.8506 37.174 26.8715 37.1408 26.9007C37.1076 26.93 37.082 26.9668 37.0661 27.0081C37.0501 27.0493 37.0444 27.0938 37.0493 27.1378L37.4093 30.0323L38.3984 37.9669C38.7111 40.4651 36.9257 42.7923 34.4202 43.156L34.3511 43.1632C33.042 43.3378 31.7657 43.1342 30.7547 42.5851C29.7729 42.0542 29.1657 41.2578 29.0457 40.3523C28.922 39.4432 29.3002 38.5196 30.1075 37.7451C30.9366 36.9523 32.1147 36.4178 33.4238 36.2432C34.4602 36.104 35.4275 36.2087 36.242 36.4869C36.2861 36.5012 36.333 36.5042 36.3785 36.4957C36.424 36.4871 36.4666 36.4673 36.5025 36.438C36.5383 36.4086 36.5662 36.3708 36.5836 36.3279C36.601 36.2849 36.6073 36.2383 36.602 36.1923C34.3057 19.0789 37.058 39.6349 34.4929 20.4687C34.4998 20.4323 34.2093 19.3923 35.1548 19.2687C35.2082 19.268 35.4566 19.1898 35.7475 19.3523C36.2082 19.5814 41.1155 20.9825 43.1584 25.2723Z" fill="#553045"/>
<path d="M8.33792 37.6878C6.93828 37.8987 5.57792 38.1249 4.57428 39.1347C3.97246 39.7405 3.84373 40.3398 3.82701 40.3772C3.72337 40.7438 4.29355 40.8725 4.35864 40.4987C4.66773 38.734 6.7081 38.1038 8.33792 37.6878ZM31.6725 3.23977C32.9234 3.82196 33.8197 5.25686 33.7416 6.75323C34.0001 5.27832 33.3026 3.62559 31.9361 2.76232L31.9325 2.76014C31.9008 2.7404 31.8654 2.72735 31.8285 2.7218C31.7916 2.71624 31.754 2.7183 31.7179 2.72784C31.6818 2.73737 31.6481 2.75419 31.6188 2.77726C31.5894 2.80033 31.5651 2.82915 31.5474 2.86196C31.5296 2.89477 31.5187 2.93087 31.5154 2.96804C31.5121 3.00521 31.5165 3.04265 31.5282 3.07808C31.5399 3.11351 31.5588 3.14616 31.5836 3.17403C31.6084 3.2019 31.6386 3.22403 31.6725 3.23977Z" fill="#553045"/>
</g>
<defs>
<clipPath id="clip0_182_1623">
<rect width="48" height="48" fill="white"/>
</clipPath>
</defs>
</svg>
