<svg width="48" height="48" viewBox="0 0 48 48" fill="none" xmlns="http://www.w3.org/2000/svg">
<rect width="48" height="48" fill="black"/>
<path d="M37.9863 27.6558C37.9863 26.2653 36.8592 25.1382 35.4688 25.1382C34.0783 25.1382 32.9512 26.2653 32.9512 27.6558V30.4444C32.9512 31.8349 34.0783 32.962 35.4688 32.962C36.8592 32.962 37.9863 31.8349 37.9863 30.4444V27.6558Z" fill="#E6E6E6"/>
<path d="M35.4689 37.8419C36.0442 37.8419 36.5959 38.0704 37.0026 38.4772C37.4094 38.8839 37.6379 39.4356 37.6379 40.0109V41.5156H33.2998V40.0109C33.2998 39.726 33.3559 39.444 33.4649 39.1808C33.5739 38.9176 33.7337 38.6785 33.9351 38.4771C34.1366 38.2757 34.3757 38.1159 34.6389 38.0069C34.902 37.8979 35.1841 37.8419 35.4689 37.8419ZM37.9864 30.4442V27.6555C37.9863 27.0868 37.7936 26.5348 37.4398 26.0894C37.0859 25.6441 36.5918 25.3317 36.0377 25.2031V29.4502C36.0382 30.1149 35.8052 30.7587 35.3794 31.2691C34.9536 31.7795 34.362 32.1242 33.708 32.2428C34.0621 32.5896 34.5107 32.8242 34.9976 32.917C35.4845 33.0099 35.9879 32.957 36.4448 32.7649C36.9017 32.5728 37.2917 32.2501 37.566 31.8372C37.8402 31.4244 37.9865 30.9397 37.9864 30.4441V30.4442Z" fill="#B3B3B3"/>
<path d="M32.9512 27.6554V29.3778H33.5989C33.9719 29.3778 34.3296 29.2296 34.5933 28.9659C34.857 28.7022 35.0052 28.3445 35.0052 27.9715V25.1812C34.428 25.2893 33.9068 25.5958 33.5317 26.0476C33.1566 26.4995 32.9513 27.0682 32.9512 27.6554Z" fill="white"/>
<path d="M22.2559 34.5189C22.2469 34.4698 22.239 34.4213 22.232 34.3735C22.0084 32.8238 23.1187 31.4203 24.6626 31.1593C24.695 31.1537 24.7275 31.148 24.7598 31.1421C27.902 30.5631 29.0946 26.6843 26.8354 24.4251L25.0598 22.6495L23.2841 20.8738C21.0248 18.6146 17.1462 19.8072 16.5672 22.9493C16.5612 22.9817 16.5555 23.0141 16.55 23.0466C16.2891 24.5904 14.8855 25.7007 13.3358 25.4771C13.2879 25.4703 13.2394 25.4623 13.1903 25.4533C10.9005 25.0327 8.75093 27.0889 8.75093 27.0889C8.21563 27.6242 7.79101 28.2596 7.50131 28.959C7.21161 29.6584 7.0625 30.4081 7.0625 31.1651C7.0625 31.9221 7.21161 32.6717 7.50131 33.3711C7.79101 34.0705 8.21563 34.706 8.75093 35.2413L10.6096 37.0998L12.468 38.9583C13.0033 39.4936 13.6388 39.9182 14.3382 40.2079C15.0376 40.4976 15.7873 40.6468 16.5443 40.6468C17.3013 40.6468 18.0509 40.4976 18.7503 40.2079C19.4497 39.9182 20.0852 39.4936 20.6205 38.9583C20.6205 38.9583 22.6766 36.8087 22.2559 34.5189Z" fill="#FFA466"/>
<path d="M16.2886 32.4818L18.0264 34.2749L27.2387 24.8954C27.1161 24.7289 26.9813 24.5718 26.8352 24.4254L25.0596 22.6498L24.9337 22.5239L24.6204 22.7036L17.0891 30.7309L16.2886 32.4818Z" fill="#D67038"/>
<path d="M14.5376 30.7306L34.7228 10.5454L36.2774 13.8726L17.0896 33.2824L14.5376 30.7306Z" fill="white"/>
<path d="M37.1291 7.1993L40.51 10.5801L38.1035 12.9866C37.8815 13.2086 37.618 13.3846 37.3279 13.5048C37.0379 13.6249 36.727 13.6868 36.4131 13.6868C36.0991 13.6868 35.7883 13.6249 35.4982 13.5048C35.2082 13.3846 34.9447 13.2086 34.7227 12.9866C34.5007 12.7646 34.3246 12.501 34.2044 12.211C34.0843 11.9209 34.0225 11.6101 34.0225 11.2961C34.0225 10.9822 34.0843 10.6713 34.2044 10.3813C34.3246 10.0912 34.5007 9.82769 34.7227 9.6057L37.1291 7.1993Z" fill="#FFA466"/>
<path d="M20.6204 38.9587C21.0357 38.4991 21.3919 37.9894 21.6808 37.4415L20.9488 36.7569C20.8512 36.666 20.7356 36.5966 20.6095 36.5533C20.4834 36.5099 20.3496 36.4936 20.2168 36.5053C20.084 36.517 19.9551 36.5565 19.8385 36.6212C19.7219 36.6859 19.6202 36.7744 19.54 36.8809C18.5488 38.3123 17.2982 38.5528 16.2955 38.435C15.4144 38.3229 14.5977 37.9139 13.9801 37.2755L12.1348 35.4013C11.6617 34.921 11.0423 34.6118 10.3741 34.5224C9.70595 34.433 9.02701 34.5685 8.44434 34.9076C8.54215 35.0229 8.64445 35.1343 8.75098 35.2416L10.6096 37.1001L12.468 38.9587C13.0033 39.494 13.6388 39.9186 14.3382 40.2083C15.0376 40.498 15.7872 40.6471 16.5443 40.6471C17.3013 40.6471 18.0509 40.498 18.7503 40.2083C19.4497 39.9186 20.0852 39.494 20.6205 38.9587H20.6204Z" fill="#D67038"/>
<path d="M16.7856 22.1902C17.2367 22.5948 17.7893 22.869 18.3843 22.9832C18.9793 23.0975 19.5943 23.0477 20.1631 22.839C20.7319 22.6303 21.2332 22.2707 21.6131 21.7987C21.993 21.3267 22.2372 20.7602 22.3196 20.1599C20.2831 19.0808 17.6519 19.998 16.7856 22.1902Z" fill="#FFCFAE"/>
<path d="M40.51 10.5801L39.4855 9.55566L37.6303 11.5346C37.2394 11.9587 36.7335 12.2597 36.1744 12.401C35.837 12.4864 35.4858 12.5025 35.1421 12.4483C34.7983 12.3941 34.4691 12.2706 34.1744 12.0855C34.1679 12.0815 34.1618 12.0782 34.1553 12.0743C34.2724 12.4178 34.4666 12.7298 34.7229 12.9866C35.1713 13.4349 35.7793 13.6868 36.4133 13.6868C37.0473 13.6868 37.6554 13.4349 38.1037 12.9866L40.51 10.5801Z" fill="#D67038"/>
<path d="M38.1961 8.26641L37.129 7.19922L34.9658 9.36234L35.281 9.62852C35.5029 9.81605 35.7867 9.91433 36.0771 9.90422C36.3675 9.89411 36.6438 9.77634 36.8521 9.57383L38.1961 8.26641Z" fill="#FFCFAE"/>
<path d="M20.8204 27.9385L19.5074 29.2346C19.151 29.5866 18.6745 29.7908 18.1737 29.806C17.6729 29.8213 17.1849 29.6464 16.8077 29.3167L16.3509 28.9173L14.5376 30.7306L17.0896 33.2825L22.6015 27.7068C22.3201 27.5455 21.9936 27.4808 21.6719 27.5227C21.3503 27.5645 21.0512 27.7106 20.8204 27.9385Z" fill="#E6E6E6"/>
<path d="M13.9723 29.5348C13.9311 29.4927 13.8819 29.4592 13.8276 29.4362C13.7733 29.4133 13.715 29.4013 13.6561 29.401C13.5972 29.4007 13.5388 29.4121 13.4843 29.4345C13.4298 29.4569 13.3802 29.4899 13.3386 29.5316C13.2969 29.5733 13.2639 29.6228 13.2415 29.6773C13.2191 29.7318 13.2077 29.7902 13.208 29.8491C13.2083 29.9081 13.2203 29.9664 13.2433 30.0206C13.2662 30.0749 13.2997 30.1241 13.3418 30.1653L14.2221 31.0456L17.5438 34.3671C17.6274 34.4507 17.7408 34.4977 17.8591 34.4977C17.9773 34.4977 18.0907 34.4507 18.1743 34.3671C18.258 34.2835 18.3049 34.1701 18.3049 34.0518C18.3049 33.9336 18.258 33.8202 18.1743 33.7366L16.3886 31.9509L25.5557 22.7841C25.6394 22.7005 25.6864 22.587 25.6864 22.4688C25.6864 22.3505 25.6394 22.2371 25.5558 22.1535C25.4722 22.0699 25.3588 22.0229 25.2405 22.0229C25.1222 22.0229 25.0088 22.0698 24.9252 22.1534L15.7579 31.3202L15.168 30.7304L28.4121 17.4867C28.4535 17.4453 28.4863 17.3962 28.5087 17.3421C28.5311 17.288 28.5427 17.23 28.5427 17.1715C28.5427 17.1129 28.5311 17.0549 28.5087 17.0008C28.4863 16.9467 28.4535 16.8976 28.4121 16.8562C28.3707 16.8148 28.3215 16.7819 28.2674 16.7595C28.2133 16.7371 28.1553 16.7256 28.0968 16.7256C28.0382 16.7256 27.9803 16.7371 27.9262 16.7595C27.8721 16.7819 27.8229 16.8148 27.7815 16.8562L14.5376 30.1001L13.9723 29.5348Z" fill="white"/>
<path d="M30.9299 14.7848C30.9884 14.7848 31.0464 14.7733 31.1005 14.7509C31.1546 14.7285 31.2037 14.6957 31.2451 14.6542L33.7189 12.1798C33.81 12.4597 33.9445 12.7234 34.1174 12.9616L27.0285 20.0504C26.9864 20.0916 26.9529 20.1408 26.93 20.1951C26.907 20.2493 26.895 20.3076 26.8947 20.3666C26.8944 20.4255 26.9058 20.4839 26.9282 20.5384C26.9506 20.5929 26.9836 20.6424 27.0253 20.6841C27.0669 20.7258 27.1165 20.7588 27.171 20.7812C27.2255 20.8036 27.2839 20.815 27.3428 20.8147C27.4017 20.8144 27.46 20.8024 27.5143 20.7795C27.5686 20.7565 27.6178 20.723 27.659 20.6809L34.7478 13.5923C34.9854 13.7655 35.2488 13.9002 35.5282 13.9916L18.1135 31.4064C18.0299 31.49 17.9829 31.6034 17.9829 31.7217C17.9829 31.8399 18.0299 31.9533 18.1135 32.0369C18.1971 32.1206 18.3105 32.1676 18.4287 32.1676C18.547 32.1676 18.6604 32.1206 18.744 32.037L36.6593 14.1216C37.3245 14.0657 37.9481 13.7752 38.4189 13.3019L40.8251 10.8957C40.8665 10.8543 40.8994 10.8051 40.9218 10.751C40.9442 10.6969 40.9557 10.6389 40.9557 10.5804C40.9557 10.5218 40.9442 10.4638 40.9218 10.4097C40.8994 10.3556 40.8665 10.3065 40.8251 10.2651L37.4446 6.88398C37.361 6.80038 37.2476 6.75342 37.1294 6.75342C37.0111 6.75342 36.8977 6.80038 36.8141 6.88398L34.4078 9.29023C33.9361 9.76117 33.6462 10.3839 33.5896 11.048L30.6143 14.0236C30.552 14.0859 30.5095 14.1654 30.4923 14.2519C30.4751 14.3384 30.4839 14.428 30.5176 14.5095C30.5514 14.591 30.6085 14.6606 30.6818 14.7096C30.7552 14.7586 30.8414 14.7848 30.9296 14.7848H30.9299ZM35.0384 9.92109L37.1293 7.82984L39.8793 10.5798L37.7881 12.6711C37.4234 13.0357 36.9288 13.2405 36.4131 13.2405C35.8974 13.2405 35.4029 13.0357 35.0381 12.6711C34.6741 12.3061 34.4696 11.8116 34.4696 11.2961C34.4696 10.7806 34.674 10.2861 35.0381 9.92109H35.0384Z" fill="white"/>
<path d="M29.403 16.311C29.4616 16.3111 29.5196 16.2996 29.5737 16.2772C29.6278 16.2548 29.6769 16.222 29.7183 16.1805L29.7896 16.1092C29.8718 16.0253 29.9176 15.9123 29.917 15.7949C29.9164 15.6774 29.8695 15.5649 29.7865 15.4818C29.7034 15.3988 29.5909 15.3518 29.4735 15.3512C29.356 15.3506 29.243 15.3964 29.1591 15.4786L29.0878 15.5499C29.0254 15.6122 28.983 15.6917 28.9658 15.7782C28.9485 15.8646 28.9574 15.9543 28.9911 16.0358C29.0248 16.1173 29.082 16.1869 29.1553 16.2359C29.2286 16.2849 29.3149 16.311 29.403 16.311ZM8.39616 27.9224C8.4615 27.9226 8.52605 27.9083 8.58523 27.8806C8.64441 27.8529 8.69677 27.8126 8.73859 27.7624C8.79694 27.6926 8.85701 27.6242 8.91874 27.5574C8.99901 27.4705 9.0415 27.3554 9.03685 27.2372C9.03221 27.119 8.98081 27.0076 8.89398 26.9273C8.80714 26.847 8.69197 26.8045 8.57381 26.8092C8.45565 26.8138 8.34417 26.8652 8.2639 26.9521C8.19198 27.0299 8.12204 27.1095 8.05413 27.1908C7.9998 27.2559 7.96514 27.3351 7.95422 27.4191C7.9433 27.5032 7.95656 27.5886 7.99246 27.6654C8.02835 27.7422 8.0854 27.8072 8.1569 27.8527C8.2284 27.8982 8.3114 27.9224 8.39616 27.9224ZM16.1284 22.8684C16.1219 22.9032 16.1158 22.9381 16.11 22.9725C15.883 24.3163 14.6925 25.2225 13.3991 25.0361C13.3569 25.03 13.314 25.023 13.2705 25.0149C12.3817 24.8518 11.4255 24.9993 10.4288 25.4529C10.3752 25.4769 10.3268 25.5113 10.2864 25.5541C10.2461 25.5969 10.2147 25.6472 10.1939 25.7022C10.1731 25.7572 10.1634 25.8158 10.1653 25.8745C10.1672 25.9333 10.1808 25.9911 10.2051 26.0446C10.2295 26.0981 10.2642 26.1463 10.3073 26.1863C10.3503 26.2264 10.4008 26.2575 10.456 26.2779C10.5111 26.2984 10.5697 26.3077 10.6285 26.3054C10.6872 26.3031 10.7449 26.2892 10.7983 26.2645C11.6258 25.8877 12.403 25.7622 13.1094 25.892C13.1641 25.9021 13.2182 25.911 13.2717 25.9187C13.4267 25.9411 13.5832 25.9524 13.7398 25.9524C15.3268 25.9524 16.7086 24.7842 16.9894 23.1205L17.0051 23.0303C17.1027 22.4767 17.3339 21.9551 17.6786 21.511C18.0233 21.0668 18.4711 20.7135 18.9833 20.4815C19.4967 20.2425 20.0601 20.1304 20.6259 20.1547C21.1917 20.179 21.7434 20.339 22.2344 20.6213C22.285 20.6508 22.3409 20.67 22.3989 20.6779C22.4569 20.6858 22.5159 20.6822 22.5726 20.6673C22.6292 20.6525 22.6823 20.6265 22.729 20.5911C22.7756 20.5557 22.8147 20.5114 22.8443 20.4608C22.8738 20.4103 22.893 20.3544 22.9009 20.2964C22.9088 20.2383 22.9052 20.1793 22.8903 20.1227C22.8754 20.0661 22.8495 20.0129 22.8141 19.9663C22.7787 19.9197 22.7344 19.8805 22.6838 19.851C22.0691 19.4969 21.3782 19.2957 20.6695 19.2644C19.9607 19.2331 19.2548 19.3727 18.6113 19.6713C17.9687 19.9622 17.4067 20.4054 16.9741 20.9625C16.5414 21.5196 16.2512 22.1738 16.1284 22.8684ZM24.7365 31.5991C24.7713 31.5931 24.8062 31.5871 24.8403 31.5807C25.532 31.4584 26.1837 31.1701 26.7394 30.7404C27.2951 30.3107 27.7381 29.7525 28.0305 29.1138C28.3304 28.474 28.4727 27.7718 28.4458 27.0657C28.4188 26.3597 28.2233 25.6703 27.8755 25.0553C27.8474 25.0028 27.8089 24.9565 27.7625 24.9191C27.7161 24.8817 27.6627 24.854 27.6055 24.8376C27.5482 24.8212 27.4882 24.8164 27.4291 24.8236C27.3699 24.8308 27.3128 24.8497 27.2611 24.8794C27.2094 24.909 27.1642 24.9486 27.1281 24.996C27.092 25.0434 27.0657 25.0976 27.0509 25.1553C27.0361 25.213 27.033 25.2731 27.0418 25.332C27.0506 25.3909 27.0711 25.4475 27.1021 25.4984C27.3791 25.9898 27.5345 26.5403 27.5553 27.104C27.5762 27.6677 27.4619 28.2282 27.2219 28.7387C26.9887 29.2476 26.6354 29.6923 26.1924 30.0346C25.7494 30.3769 25.23 30.6066 24.6787 30.7038C24.6486 30.7094 24.6186 30.7147 24.5882 30.7195C22.7633 31.0279 21.5345 32.6608 21.7907 34.4364C21.7984 34.4901 21.8072 34.5444 21.8173 34.5993C22.1909 36.6328 20.3168 38.6306 20.3051 38.6428C19.3069 39.6388 17.9543 40.1982 16.5442 40.1982C15.134 40.1982 13.7815 39.6388 12.7832 38.6428L9.06585 34.9263C8.34615 34.2041 7.84845 33.2908 7.63167 32.2945C7.41488 31.2983 7.4881 30.2607 7.84265 29.3048C7.88241 29.1943 7.87701 29.0727 7.82761 28.9662C7.77822 28.8597 7.68882 28.777 7.57882 28.736C7.46881 28.695 7.34709 28.699 7.24005 28.7472C7.13302 28.7954 7.04931 28.8839 7.0071 28.9935C6.59301 30.1096 6.50746 31.3211 6.76058 32.4844C7.0137 33.6476 7.59488 34.714 8.43531 35.5572L12.1524 39.2735C13.3195 40.4372 14.9007 41.09 16.5488 41.0887C18.1969 41.0874 19.7771 40.432 20.9423 39.2664C21.0326 39.1719 23.1507 36.9236 22.6941 34.4383C22.6862 34.3952 22.6791 34.3524 22.673 34.3099C22.4865 33.017 23.3929 31.8262 24.7365 31.5991ZM34.982 7.20213C35.0656 7.28575 35.179 7.33272 35.2973 7.33272C35.3559 7.33272 35.4138 7.32119 35.4679 7.29878C35.522 7.27637 35.5712 7.24353 35.6126 7.20213C35.654 7.16073 35.6868 7.11158 35.7092 7.05748C35.7316 7.00339 35.7432 6.94541 35.7432 6.88686C35.7432 6.8283 35.7316 6.77033 35.7092 6.71623C35.6868 6.66214 35.654 6.61299 35.6126 6.57158L35.4984 6.45752C35.4572 6.41543 35.408 6.38193 35.3537 6.35897C35.2995 6.33601 35.2412 6.32403 35.1822 6.32374C35.1233 6.32344 35.0649 6.33483 35.0104 6.35725C34.9559 6.37967 34.9064 6.41267 34.8647 6.45434C34.823 6.49601 34.79 6.54553 34.7676 6.60004C34.7452 6.65454 34.7338 6.71295 34.7341 6.77188C34.7344 6.83081 34.7464 6.8891 34.7694 6.94337C34.7924 6.99764 34.8259 7.04682 34.868 7.08807L34.982 7.20213ZM33.6351 8.54916C33.6765 8.59056 33.7256 8.62339 33.7797 8.64579C33.8338 8.66819 33.8918 8.67972 33.9504 8.67971C34.0089 8.67971 34.0669 8.66817 34.121 8.64575C34.1751 8.62334 34.2242 8.59049 34.2656 8.54908C34.307 8.50768 34.3399 8.45852 34.3623 8.40442C34.3847 8.35032 34.3962 8.29234 34.3962 8.23379C34.3962 8.17524 34.3846 8.11726 34.3622 8.06317C34.3398 8.00908 34.3069 7.95993 34.2655 7.91854L34.1515 7.80447C34.1102 7.76238 34.061 7.72889 34.0068 7.70592C33.9525 7.68296 33.8942 7.67099 33.8353 7.67069C33.7763 7.67039 33.7179 7.68178 33.6634 7.7042C33.6089 7.72662 33.5594 7.75962 33.5177 7.80129C33.4761 7.84297 33.4431 7.89249 33.4207 7.94699C33.3983 8.0015 33.3869 8.0599 33.3872 8.11884C33.3875 8.17777 33.3995 8.23605 33.4224 8.29033C33.4454 8.3446 33.4789 8.39378 33.521 8.43502L33.6351 8.54916ZM41.2515 12.211L41.1374 12.0969C41.0538 12.0133 40.9404 11.9663 40.8221 11.9663C40.7039 11.9664 40.5905 12.0133 40.5069 12.097C40.4233 12.1806 40.3763 12.294 40.3763 12.4123C40.3763 12.5305 40.4233 12.6439 40.5069 12.7275L40.621 12.8416C40.7049 12.9238 40.8179 12.9696 40.9353 12.969C41.0528 12.9684 41.1653 12.9214 41.2483 12.8384C41.3314 12.7553 41.3783 12.6428 41.3789 12.5253C41.3795 12.4079 41.3337 12.2949 41.2515 12.211ZM39.1601 13.4435C39.0764 13.5271 39.0295 13.6405 39.0295 13.7588C39.0295 13.877 39.0764 13.9905 39.1601 14.0741L39.2742 14.1881C39.3155 14.2302 39.3646 14.2637 39.4189 14.2867C39.4732 14.3097 39.5315 14.3216 39.5904 14.3219C39.6493 14.3222 39.7077 14.3108 39.7623 14.2884C39.8168 14.266 39.8663 14.233 39.9079 14.1913C39.9496 14.1497 39.9826 14.1001 40.005 14.0456C40.0274 13.9911 40.0388 13.9327 40.0385 13.8738C40.0382 13.8149 40.0262 13.7566 40.0032 13.7023C39.9803 13.648 39.9468 13.5988 39.9047 13.5576L39.7906 13.4435C39.707 13.3599 39.5936 13.313 39.4753 13.313C39.3571 13.313 39.2437 13.3599 39.1601 13.4435Z" fill="white"/>
<path d="M11.239 20.3935C11.2921 20.4182 11.3495 20.4322 11.408 20.4348C11.4665 20.4373 11.5249 20.4283 11.5799 20.4083C11.6349 20.3882 11.6855 20.3575 11.7286 20.318C11.7718 20.2784 11.8067 20.2307 11.8314 20.1777C11.8562 20.1246 11.8702 20.0672 11.8727 20.0087C11.8753 19.9502 11.8663 19.8917 11.8462 19.8367C11.8262 19.7817 11.7955 19.7312 11.7559 19.688C11.7164 19.6449 11.6687 19.6099 11.6156 19.5852C11.1467 19.3668 10.7305 19.0499 10.3953 18.6559C10.0601 18.262 9.8138 17.8004 9.67325 17.3026C9.5327 16.8049 9.5012 16.2826 9.58088 15.7716C9.66057 15.2605 9.84957 14.7726 10.135 14.3413C10.281 14.1214 10.4506 13.9182 10.6408 13.7352C10.6431 13.733 10.6459 13.7315 10.648 13.7293L12.4928 11.9039V18.0463C12.2276 17.95 11.9948 17.7812 11.8208 17.5591C11.6468 17.3371 11.5386 17.0706 11.5084 16.7901L11.5035 16.7427C11.4468 16.1629 11.5838 15.5806 11.8932 15.087C11.9242 15.0373 11.9451 14.9821 11.9548 14.9243C11.9644 14.8666 11.9626 14.8075 11.9494 14.7504C11.9363 14.6934 11.912 14.6395 11.878 14.5919C11.844 14.5442 11.8009 14.5037 11.7512 14.4727C11.7016 14.4417 11.6463 14.4208 11.5886 14.4111C11.5308 14.4014 11.4717 14.4033 11.4147 14.4164C11.3577 14.4296 11.3038 14.4539 11.2561 14.4879C11.2085 14.5219 11.168 14.565 11.1369 14.6147C10.7234 15.2742 10.5401 16.0523 10.6159 16.8271L10.622 16.8878C10.6763 17.387 10.8862 17.8565 11.2219 18.2299C11.5576 18.6033 12.0022 18.8617 12.4929 18.9686V22.5563C12.4935 22.5777 12.4957 22.5991 12.4994 22.6203C12.4876 22.7642 12.4368 22.9022 12.3524 23.0194C12.268 23.1366 12.1532 23.2285 12.0204 23.2852C11.8876 23.342 11.7418 23.3614 11.5988 23.3413C11.4558 23.3213 11.3209 23.2625 11.2088 23.1715C11.0967 23.0804 11.0116 22.9605 10.9627 22.8246C10.9137 22.6888 10.9028 22.5421 10.9311 22.4005C10.9594 22.2589 11.0258 22.1277 11.1232 22.021C11.2206 21.9144 11.3453 21.8363 11.4837 21.7954C11.5399 21.7788 11.5922 21.7513 11.6378 21.7144C11.6833 21.6776 11.7211 21.6322 11.7491 21.5808C11.777 21.5293 11.7946 21.4729 11.8008 21.4147C11.8069 21.3564 11.8016 21.2976 11.785 21.2414C11.7684 21.1853 11.7409 21.1329 11.7041 21.0874C11.6672 21.0419 11.6218 21.004 11.5704 20.9761C11.5189 20.9481 11.4625 20.9305 11.4043 20.9244C11.346 20.9182 11.2872 20.9236 11.231 20.9402C10.9312 21.0289 10.6619 21.1993 10.4533 21.4323C10.2448 21.6653 10.1052 21.9518 10.0501 22.2596C9.99509 22.5674 10.0268 22.8845 10.1416 23.1753C10.2565 23.4662 10.45 23.7193 10.7005 23.9065C10.9511 24.0936 11.2487 24.2073 11.5602 24.235C11.8717 24.2626 12.1847 24.203 12.4643 24.0629C12.7438 23.9228 12.9789 23.7077 13.1432 23.4416C13.3074 23.1755 13.3944 22.869 13.3944 22.5563C13.3944 22.5254 13.3912 22.4946 13.3848 22.4644V20.8033C14.261 20.7515 15.103 20.4448 15.8073 19.9209C16.5116 19.3971 17.0475 18.6789 17.3492 17.8546C17.3537 17.8452 17.3591 17.8364 17.363 17.8267C17.5728 17.3014 17.6548 16.7337 17.602 16.1704C17.562 15.6748 17.4164 15.1934 17.1752 14.7586C16.9339 14.3237 16.6026 13.9455 16.2032 13.6491C15.8039 13.3528 15.3458 13.1452 14.8597 13.0403C14.3737 12.9354 13.8708 12.9356 13.3848 13.0409V7.37395C13.3848 7.3103 13.3983 7.24739 13.4245 7.18938C13.4507 7.13137 13.4889 7.07958 13.5366 7.03746C13.5811 6.99736 13.6337 6.96732 13.6908 6.94939C13.7479 6.93145 13.8083 6.92605 13.8677 6.93356L13.9002 6.93777C14.0885 6.96481 14.2656 7.04355 14.4118 7.16523C14.558 7.28692 14.6675 7.44679 14.7282 7.62704C14.789 7.80729 14.7985 8.00085 14.7558 8.18619C14.713 8.37153 14.6197 8.54138 14.4862 8.67684L13.9498 9.20754C13.9082 9.24873 13.8751 9.29771 13.8524 9.35169C13.8297 9.40566 13.8179 9.46358 13.8176 9.52213C13.8173 9.58069 13.8285 9.63872 13.8507 9.69294C13.8728 9.74715 13.9054 9.79647 13.9466 9.83809C13.9877 9.8797 14.0367 9.9128 14.0907 9.93549C14.1447 9.95818 14.2026 9.97001 14.2612 9.97032C14.3197 9.97062 14.3777 9.95939 14.432 9.93727C14.4862 9.91514 14.5355 9.88256 14.5771 9.84137L15.1162 9.3077C15.3671 9.05486 15.5428 8.73718 15.6235 8.39019C15.7042 8.04321 15.6867 7.68061 15.573 7.34299C15.4594 7.00536 15.254 6.70603 14.9799 6.47848C14.7058 6.25093 14.3738 6.10416 14.021 6.05457L13.9776 6.04879C13.7928 6.0262 13.6053 6.04307 13.4276 6.09828C13.2498 6.1535 13.0858 6.2458 12.9463 6.3691C12.8039 6.49494 12.6899 6.64961 12.6117 6.82285C12.5336 6.9961 12.4932 7.18398 12.4932 7.37402V10.6493L10.031 13.0858C10.0291 13.0876 10.0269 13.0888 10.025 13.0906C9.78698 13.3193 9.57478 13.5734 9.39218 13.8484V13.8489C9.03581 14.3872 8.79977 14.996 8.70019 15.6339C8.60061 16.2717 8.63983 16.9235 8.81516 17.5448C8.9905 18.1661 9.29782 18.7423 9.71616 19.234C10.1345 19.7257 10.654 20.1213 11.2392 20.3939L11.239 20.3935ZM13.3846 13.9583C13.7563 13.85 14.1475 13.8259 14.5298 13.8876C14.912 13.9493 15.2757 14.0953 15.5945 14.3151C15.9133 14.5348 16.1792 14.8228 16.3728 15.1581C16.5665 15.4934 16.683 15.8676 16.7141 16.2536C16.7359 16.4853 16.7273 16.7189 16.6884 16.9484C16.6724 16.9809 16.6604 17.0151 16.6527 17.0505C16.4928 17.8176 16.0873 18.5116 15.4976 19.0275C14.9079 19.5435 14.1661 19.8532 13.3846 19.9099V13.9583Z" fill="white"/>
<path d="M14.6866 15.3444C14.6328 15.3675 14.5841 15.4011 14.5433 15.443C14.5024 15.485 14.4702 15.5346 14.4486 15.589C14.4269 15.6434 14.4162 15.7016 14.417 15.7602C14.4178 15.8187 14.4301 15.8766 14.4533 15.9303C14.5704 16.204 14.6087 16.5049 14.5637 16.7992C14.5188 17.0934 14.3924 17.3692 14.1989 17.5954C14.1233 17.6853 14.0862 17.8015 14.0957 17.9186C14.1052 18.0357 14.1606 18.1444 14.2498 18.2209C14.339 18.2974 14.4548 18.3356 14.572 18.3272C14.6892 18.3188 14.7983 18.2644 14.8757 18.176C15.1779 17.8232 15.3752 17.3928 15.4453 16.9336C15.5154 16.4745 15.4556 16.0048 15.2725 15.5779C15.2494 15.5241 15.2159 15.4754 15.1739 15.4345C15.132 15.3937 15.0824 15.3615 15.0279 15.3398C14.9735 15.3181 14.9154 15.3074 14.8568 15.3081C14.7983 15.3089 14.7404 15.3213 14.6866 15.3444ZM40.5423 28.6038H39.5645C39.4463 28.6038 39.3329 28.6508 39.2493 28.7344C39.1656 28.818 39.1187 28.9314 39.1187 29.0496C39.1187 29.1679 39.1656 29.2813 39.2493 29.3649C39.3329 29.4485 39.4463 29.4955 39.5645 29.4955H40.0964V31.6518C40.0951 32.7093 39.6744 33.7231 38.9266 34.4709C38.1788 35.2186 37.1649 35.6392 36.1074 35.6404H34.8294C33.7718 35.6392 32.7579 35.2186 32.0101 34.4708C31.2622 33.7229 30.8416 32.709 30.8404 31.6514V29.4952H31.3383C31.3968 29.4952 31.4548 29.4837 31.5089 29.4613C31.563 29.4388 31.6122 29.406 31.6536 29.3646C31.695 29.3232 31.7278 29.274 31.7502 29.22C31.7726 29.1659 31.7841 29.1079 31.7841 29.0493C31.7841 28.9908 31.7726 28.9328 31.7502 28.8787C31.7278 28.8246 31.695 28.7755 31.6536 28.7341C31.6122 28.6927 31.563 28.6598 31.5089 28.6374C31.4548 28.615 31.3968 28.6035 31.3383 28.6035H30.3945C30.2763 28.6035 30.1629 28.6504 30.0793 28.7341C29.9956 28.8177 29.9487 28.9311 29.9487 29.0493V31.6514C29.9501 32.9454 30.4648 34.186 31.3798 35.101C32.2948 36.016 33.5354 36.5307 34.8294 36.5321H35.0225V37.4343C34.4158 37.5401 33.8657 37.8563 33.469 38.3274C33.0723 38.7986 32.8544 39.3945 32.8536 40.0103V41.5154C32.8536 41.6337 32.9006 41.7471 32.9842 41.8307C33.0678 41.9143 33.1812 41.9613 33.2995 41.9613H37.6373C37.7556 41.9613 37.869 41.9143 37.9526 41.8307C38.0362 41.7471 38.0832 41.6337 38.0832 41.5154V40.0107C38.0823 39.3947 37.8644 38.7988 37.4676 38.3277C37.0709 37.8565 36.5207 37.5403 35.9139 37.4346V36.5325H36.1071C37.4011 36.531 38.6417 36.0163 39.5567 35.1013C40.4717 34.1863 40.9864 32.9458 40.9878 31.6518V29.0496C40.9878 28.9314 40.9409 28.8181 40.8573 28.7345C40.7738 28.6509 40.6605 28.6039 40.5423 28.6038ZM37.1915 40.0107V41.0693H33.7453V40.0107C33.7438 39.7834 33.7872 39.5581 33.8731 39.3477C33.959 39.1373 34.0857 38.946 34.2459 38.7847C34.406 38.6235 34.5965 38.4955 34.8063 38.4082C35.0161 38.3209 35.2411 38.2759 35.4684 38.2759C35.6957 38.2759 35.9207 38.3209 36.1305 38.4082C36.3403 38.4955 36.5308 38.6235 36.6909 38.7847C36.8511 38.946 36.9778 39.1373 37.0637 39.3477C37.1496 39.5581 37.193 39.7834 37.1915 40.0107Z" fill="white"/>
<path d="M38.4319 27.6554C38.4339 27.265 38.3588 26.878 38.2107 26.5167C38.0627 26.1554 37.8447 25.8269 37.5694 25.5501C37.294 25.2733 36.9666 25.0537 36.6061 24.9038C36.2456 24.7539 35.859 24.6768 35.4685 24.6768C35.0781 24.6768 34.6915 24.7539 34.331 24.9038C33.9704 25.0537 33.6431 25.2733 33.3677 25.5501C33.0923 25.8269 32.8743 26.1554 32.7263 26.5167C32.5783 26.878 32.5031 27.265 32.5051 27.6554V30.4441C32.5051 30.5137 32.5084 30.5825 32.5129 30.651C32.496 30.737 32.5059 30.8262 32.5412 30.9064C32.6513 31.6036 33.0067 32.2385 33.5433 32.697C34.0799 33.1555 34.7625 33.4074 35.4683 33.4074C36.1741 33.4074 36.8567 33.1555 37.3933 32.697C37.9299 32.2385 38.2852 31.6036 38.3954 30.9064C38.4307 30.8262 38.4406 30.737 38.4236 30.651C38.4284 30.5825 38.4315 30.5137 38.4315 30.4441L38.4319 27.6554ZM37.5402 30.2847H36.9134C36.7952 30.2847 36.6818 30.3317 36.5981 30.4153C36.5145 30.4989 36.4675 30.6123 36.4675 30.7306C36.4675 30.8488 36.5145 30.9622 36.5981 31.0458C36.6818 31.1295 36.7952 31.1764 36.9134 31.1764H37.404C37.2552 31.5695 36.9904 31.908 36.6448 32.1472C36.2992 32.3863 35.889 32.5148 35.4687 32.5155C35.0484 32.5148 34.6382 32.3863 34.2925 32.1471C33.9468 31.9079 33.6821 31.5693 33.5333 31.1762H34.0239C34.1421 31.1762 34.2555 31.1292 34.3391 31.0456C34.4228 30.962 34.4697 30.8486 34.4697 30.7303C34.4697 30.6121 34.4228 30.4987 34.3391 30.4151C34.2555 30.3314 34.1421 30.2845 34.0239 30.2845H33.3968V28.1014H34.0234C34.1406 28.0999 34.2526 28.0522 34.3349 27.9688C34.4173 27.8853 34.4634 27.7728 34.4634 27.6555C34.4634 27.5383 34.4173 27.4258 34.3349 27.3423C34.2526 27.2588 34.1406 27.2112 34.0234 27.2096H33.4462C33.5475 26.7487 33.8032 26.3363 34.1709 26.0406C34.5387 25.7448 34.9964 25.5836 35.4683 25.5836C35.9402 25.5836 36.3979 25.7448 36.7657 26.0406C37.1334 26.3363 37.3891 26.7487 37.4904 27.2096H36.9132C36.7959 27.2112 36.684 27.2588 36.6017 27.3423C36.5193 27.4258 36.4731 27.5383 36.4731 27.6555C36.4731 27.7728 36.5193 27.8853 36.6017 27.9688C36.684 28.0522 36.7959 28.0999 36.9132 28.1014H37.54L37.5402 30.2847Z" fill="white"/>
</svg>
