<svg width="48" height="48" viewBox="0 0 48 48" fill="none" xmlns="http://www.w3.org/2000/svg">
<rect width="48" height="48" fill="black"/>
<path d="M39.7788 28.7269C39.6871 29.1854 39.313 29.5345 38.9191 29.7873C38.5256 30.0404 38.0887 30.2346 37.7453 30.5523C37.4022 30.8703 37.1644 31.3645 37.3171 31.8068C37.3564 31.9208 37.4224 32.0286 37.5184 32.1019C37.8364 32.3438 38.287 32.1229 38.6197 31.9017L40.0976 30.9191C40.45 30.6846 40.8146 30.438 41.0301 30.0737C41.2662 29.6744 41.2911 29.1775 41.1904 28.7247C41.0898 28.272 40.8741 27.8539 40.6504 27.4478C40.5476 27.261 40.4407 27.0734 40.2926 26.9204C40.105 26.7262 39.8598 26.5969 39.6081 26.4985C38.1449 25.9244 36.3372 26.3913 35.3358 27.6019C35.3052 28.2578 35.6663 28.8679 36.2306 29.205C36.4032 29.3081 36.5993 29.4093 36.6746 29.5956C36.7264 29.7243 36.709 29.8691 36.6904 30.0068C36.3271 32.7287 35.7282 38.7273 36.7341 38.8487C36.9681 38.877 37.2075 38.7846 37.327 38.5814C37.4464 38.3787 37.8135 35.7139 38.2635 34.7108C38.3661 34.4817 38.614 34.1959 38.8166 34.344C39.3356 34.7237 39.883 38.6826 40.1636 38.9046C40.4991 39.1699 40.8991 39.1113 41.1244 38.7505C41.3216 38.4349 41.0781 30.9055 41.0301 30.0737" fill="white"/>
<path d="M39.0575 26.7014C40.0651 26.7014 40.882 25.8604 40.882 24.8229C40.882 23.7854 40.0651 22.9443 39.0575 22.9443C38.0498 22.9443 37.2329 23.7854 37.2329 24.8229C37.2329 25.8604 38.0498 26.7014 39.0575 26.7014Z" fill="white"/>
<path d="M13.8416 27.7969C13.1713 27.7192 12.5164 28.0762 11.9118 28.4231L9.99154 29.5249C9.75563 29.6602 9.50363 29.8004 9.24154 29.7944C8.89381 29.787 8.62245 29.5271 8.41736 29.2571C8.21308 28.9887 8.03172 28.6865 7.73908 28.5264C7.44726 28.3669 6.99399 28.4184 6.81836 28.7367C6.68254 28.9833 6.76381 29.2732 6.86199 29.5173C7.09084 30.0863 7.39422 30.6224 7.76417 31.1116C7.9649 31.377 8.1989 31.6372 8.5169 31.7367C8.88917 31.8532 9.31217 31.7258 9.67381 31.5256C10.0338 31.3257 10.3556 31.056 10.7102 30.8509C10.7852 30.8075 10.8681 30.7658 10.9504 30.7762C11.0434 30.7879 11.1127 30.8626 11.1727 30.9349C12.3122 32.3094 11.8333 37.3704 11.7351 37.914C11.6361 38.4622 11.6642 39.0712 11.9634 39.5089C12.2644 39.9499 12.8934 40.1244 13.3014 39.7674C13.6098 39.4974 13.7055 39.0335 13.7751 38.6122C14.1313 36.4576 14.3969 34.2597 15.5429 32.6122C15.9198 32.0694 16.4072 31.5428 16.4287 30.8883C16.447 30.342 16.1298 29.8601 15.8287 29.4259C15.3174 28.6884 14.713 27.8981 13.8416 27.7969Z" fill="white"/>
<path d="M13.7298 27.8564C13.1473 28.7073 11.9756 28.9233 11.1299 28.3326C10.9325 28.1954 10.7645 28.0201 10.6359 27.817C10.5073 27.6139 10.4207 27.3872 10.3811 27.15C10.3415 26.9129 10.3497 26.6703 10.4053 26.4364C10.461 26.2026 10.5629 25.9822 10.705 25.7883C11.2905 24.9824 12.4207 24.7817 13.2457 25.334C13.4447 25.4665 13.6153 25.6374 13.7475 25.8365C13.8798 26.0357 13.9711 26.2591 14.0162 26.4939C14.0612 26.7287 14.0591 26.9701 14.01 27.2041C13.9608 27.4381 13.8656 27.6596 13.7298 27.8564Z" fill="white"/>
<path d="M14.9499 27.5352H38.022C38.2031 27.5352 38.2828 27.2395 38.1412 27.0933L28.1959 16.8355C27.2539 15.8641 25.9192 15.8641 24.9772 16.8355L14.8746 27.2559C14.7849 27.3481 14.8353 27.5352 14.9499 27.5352Z" fill="#E3F8FF"/>
<path d="M37.9968 27.5347C38.1778 27.5347 38.2575 27.239 38.1159 27.0929L28.0951 16.7562C27.1406 15.7733 25.9812 15.7733 25.0264 16.7562L14.8482 27.2557C14.7585 27.3479 14.8089 27.535 14.9235 27.535H16.0193C16.0466 27.535 16.0733 27.523 16.0948 27.5009L25.0267 18.2868C25.9812 17.3041 27.1403 17.3041 28.0948 18.2868L37.0267 27.5009C37.0363 27.5114 37.0479 27.5198 37.0609 27.5257C37.0739 27.5315 37.088 27.5347 37.1022 27.535L37.9968 27.5347Z" fill="#C1E6F9"/>
<path d="M36.3197 25.074C36.2196 25.0058 36.1102 24.9417 35.9897 24.9349C35.9327 24.9327 35.8757 24.941 35.8217 24.9595C35.6515 25.014 35.517 25.1466 35.4235 25.299C34.6329 26.5917 35.9741 27.1533 36.4389 26.8391C36.7075 26.6572 36.9497 26.4687 37.0451 26.1747C37.0716 26.0935 37.0885 26.0067 37.073 25.9225C37.0582 25.8417 37.0151 25.7689 36.9682 25.7013C36.7964 25.4523 36.5698 25.2442 36.3197 25.074Z" fill="white"/>
<path d="M34.8379 40.7772H18.2716C16.2283 40.7772 14.5718 39.1207 14.5718 37.0774V27.7998C14.5718 27.7455 14.5933 27.6935 14.6317 27.6551C14.67 27.6168 14.7221 27.5952 14.7763 27.5952H38.4242C38.487 27.5952 38.5377 27.6462 38.5377 27.7089V37.0774C38.5377 39.1207 36.8811 40.7772 34.8379 40.7772Z" fill="#FFF036"/>
<path d="M35.4223 40.7771H17.6323C17.198 40.7768 16.775 40.6378 16.4252 40.3802C15.6551 39.8138 15.4636 39.6957 14.9361 38.9362C14.6994 38.5955 14.5723 38.1906 14.5718 37.7757V27.7246C14.9315 44.6048 37.0966 38.7229 38.4703 38.3419C38.499 38.3342 37.833 39.3196 36.7661 40.2709C36.3953 40.5986 35.9171 40.7787 35.4223 40.7771Z" fill="#FBE000"/>
<path d="M38.9977 31.6506C38.9541 31.6787 38.6251 31.9141 38.5818 31.9422C38.2488 32.1647 37.798 32.3848 37.4802 32.1443C37.3856 32.0701 37.3188 31.9626 37.2806 31.8475C37.1268 31.4073 37.3651 30.911 37.7082 30.5935C38.0028 30.3224 38.3644 30.1228 38.7102 29.9155" fill="white"/>
<path d="M22.8896 28.562C22.8945 28.6364 22.8896 28.7073 22.8659 28.7671C22.7445 29.0739 22.2945 28.9042 22.0411 28.8944C21.2906 28.8644 20.5373 29.1789 20.0213 29.7366C19.6368 30.1522 19.5086 30.7533 19.6616 31.3083C19.7369 31.5811 19.8754 31.8344 20.0625 32.0428C20.2297 32.2296 20.4923 32.4579 20.7263 32.5381C21.206 32.7028 21.7886 32.6902 22.2798 32.6182C22.6677 32.5617 23.0451 32.4479 23.3996 32.2803C23.6205 32.1759 23.8319 32.0785 24.0001 31.8958C24.2281 31.6479 24.3702 31.3296 24.4589 31.0023C24.6912 30.1471 24.6228 29.2078 24.5199 28.3334C24.3945 27.2665 24.1733 26.2124 23.9407 25.1646C23.7296 24.2139 23.4948 23.267 23.3227 22.3081C23.2769 22.0608 23.24 21.812 23.2119 21.5621C23.1405 20.894 23.519 20.267 24.1283 20.0406C25.3561 19.5841 26.4841 19.2325 27.6429 18.6066C27.974 18.428 28.3809 18.6421 28.4448 19.025L29.42 24.8589C28.6073 24.8346 28.1666 24.8341 27.407 25.1245C26.5059 25.4692 25.7017 26.2031 26.1689 27.4855C26.2545 27.7195 26.3761 27.9385 26.5193 28.1406C26.7056 28.4032 26.9257 28.6465 27.1897 28.8251C27.5892 29.0946 28.0736 29.2042 28.5479 29.2078C29.1779 29.2124 29.8965 29.1069 30.4313 28.7501L30.4436 28.7417C30.7604 28.5296 31.0094 28.2308 31.161 27.8811C31.3127 27.5313 31.3604 27.1452 31.2986 26.7691L29.5995 16.6026C29.4361 15.6262 28.4009 15.1852 27.5475 15.3966C26.4454 15.6699 22.5634 17.6245 21.902 18.3066C21.572 18.647 21.2805 19.0994 21.2339 19.592C21.1722 20.2416 21.3727 20.8206 21.5014 21.4397C21.644 22.1253 21.7796 22.8123 21.9192 23.4988C22.1409 24.5897 22.3583 25.6817 22.5645 26.7759C22.6501 27.2305 22.7341 27.6854 22.8127 28.1414C22.8331 28.2606 22.8798 28.4182 22.8896 28.562Z" fill="#FF5C5C"/>
<path d="M24.2969 31.4896C24.2215 31.6487 24.1232 31.796 24.0051 31.9267C23.8377 32.1095 23.6247 32.2071 23.4046 32.3121C23.05 32.4798 22.672 32.5933 22.2853 32.6489C21.7944 32.722 21.211 32.7343 20.7316 32.5693C20.4976 32.4883 20.2352 32.2611 20.0672 32.074C19.8792 31.8632 19.7422 31.612 19.6669 31.3398C19.513 30.7848 19.6418 30.184 20.0269 29.7676C20.2896 29.485 20.6115 29.2639 20.9694 29.1198C20.7518 29.5019 20.6967 29.968 20.818 30.4055C20.8935 30.6777 21.0306 30.9289 21.2187 31.1397C21.3869 31.327 21.649 31.5542 21.8828 31.6349C22.3625 31.7999 22.9456 31.7877 23.4365 31.7146C23.7308 31.672 24.0194 31.5965 24.2969 31.4896ZM27.5806 15.3482C26.4779 15.6215 22.5968 17.5758 21.9351 18.2579C21.8457 18.349 21.7603 18.4483 21.6809 18.5557C23.0869 17.6988 25.5801 16.4928 26.4291 16.2826C27.2828 16.0701 28.3178 16.5111 28.4811 17.4877L28.4885 17.5322L28.6977 18.7835L29.0991 21.1854L29.5644 23.9697L29.8292 25.5547C29.8761 25.8354 29.9083 26.1179 29.9468 26.3999C29.9749 26.6039 30.0024 26.815 29.9642 27.019C29.923 27.2391 29.7954 27.4014 29.6754 27.5803C29.4332 27.9414 28.9025 27.9676 28.5177 27.9095C28.1792 27.8585 27.8844 27.6267 27.6758 27.3447C27.5394 27.16 27.4347 26.9533 27.3417 26.7427C27.2593 26.5551 27.2304 26.3958 27.1903 26.1992C27.1494 25.9987 27.1339 25.7945 27.1628 25.5916C27.1748 25.5067 27.2269 25.156 27.3155 25.1203C26.4368 25.4735 25.6748 26.2033 26.1338 27.4595C26.2189 27.6929 26.3402 27.9125 26.4834 28.1143C26.6694 28.3775 26.8895 28.6205 27.1543 28.7983C27.5533 29.0683 28.0374 29.1782 28.5125 29.1815C28.9794 29.1847 29.4951 29.1269 29.9492 28.9513L29.947 28.9554C30.1294 28.8923 30.3033 28.8069 30.4647 28.7012C30.4679 28.6982 30.4729 28.696 30.4769 28.6927C30.7937 28.4807 31.0428 28.182 31.1944 27.8323C31.3459 27.4825 31.3936 27.0965 31.3317 26.7204L29.6326 16.5534C29.4692 15.577 28.4342 15.1357 27.5806 15.3482Z" fill="#EE3C37"/>
<path d="M15.0143 9.29028C14.7757 9.16619 14.5163 9.06446 14.2515 8.97473C14.122 8.93219 13.9886 8.89291 13.8479 8.8591C13.7033 8.82364 13.6068 8.80237 13.4532 8.77564C12.9342 8.6851 12.4128 8.66737 11.9412 8.69382C11.5342 8.71843 11.1296 8.77377 10.7309 8.85937C10.4625 8.91655 10.1969 8.98626 9.93506 9.06828L9.72806 9.13455C9.60642 9.15282 9.48806 9.2071 9.3926 9.30146L9.35797 9.33582C9.12424 9.56737 9.11824 9.9391 9.34488 10.1679L15.5783 16.4666C15.1013 16.6258 14.6224 16.9157 14.2071 17.327C13.0984 18.4245 12.8489 19.9711 13.6499 20.7806C14.4509 21.59 16 21.3563 17.1089 20.2591L17.1361 20.2318C18.1812 19.1761 18.1788 17.4827 17.1645 16.4396L12.5491 11.6886L10.6973 9.78146C10.7475 9.76319 10.7974 9.74491 10.8511 9.72637C11.461 9.51637 12.3531 9.30637 13.2934 9.35819C13.3949 9.36228 13.5566 9.37728 13.666 9.39146C13.7843 9.4051 13.9068 9.42473 14.0311 9.44928C14.2804 9.50055 14.5313 9.56273 14.767 9.64891C15.2281 9.80936 15.6639 10.0348 16.0613 10.3185C16.2449 10.4513 16.4033 10.5871 16.5413 10.7147C16.6744 10.8484 16.7917 10.9686 16.8768 11.0758C16.9711 11.1811 17.0287 11.2719 17.0745 11.3322L17.1432 11.4265L17.0941 11.3262C17.0609 11.2615 17.0213 11.1639 16.948 11.048C16.8833 10.9302 16.7895 10.7949 16.6791 10.6416C16.5634 10.4944 16.4268 10.3335 16.261 10.1712C15.8924 9.81608 15.4722 9.51905 15.0143 9.29028Z" fill="#FFCADE"/>
<path d="M16.4715 19.7352C17.1059 19.1075 17.2289 18.2033 16.7464 17.7158C16.2639 17.2283 15.3585 17.342 14.7242 17.9697C14.0899 18.5975 13.9668 19.5017 14.4494 19.9892C14.9319 20.4767 15.8372 20.363 16.4715 19.7352Z" fill="#F8A3BC"/>
<path d="M40.7169 12.0835C40.7379 11.8353 40.7321 11.5773 40.7144 11.3191C40.7048 11.1897 40.6897 11.0607 40.6691 10.9326C40.6479 10.7962 40.6318 10.7062 40.5999 10.5655C40.4938 10.1087 40.3364 9.66545 40.1305 9.24415C39.9643 8.90499 39.7726 8.57887 39.5572 8.2686C39.4127 8.05968 39.2584 7.85764 39.095 7.66315L38.9643 7.50987C38.9033 7.40811 38.8114 7.32851 38.702 7.28269L38.6602 7.26524C38.379 7.14797 38.0591 7.2756 37.9443 7.55078L34.7845 15.1255C34.4782 14.7751 34.0596 14.4691 33.56 14.2607C32.2266 13.7043 30.8155 14.0425 30.4094 15.0161C30.0033 15.9898 30.7558 17.2304 32.0891 17.7865L32.1221 17.8001C33.3971 18.3167 34.8434 17.711 35.373 16.472L37.5527 11.3815L37.6495 11.4759L37.7291 11.5536C37.7428 11.5672 37.761 11.5833 37.772 11.5972L37.8063 11.6398C37.853 11.7001 37.9113 11.7614 37.9702 11.8416C38.0237 11.9289 38.0913 12.0189 38.1486 12.1241L38.2724 12.3674C38.2738 12.3701 38.2751 12.3726 38.276 12.3751L38.3122 12.4672L38.3872 12.6568C38.4088 12.7228 38.4276 12.7904 38.4486 12.8586C38.495 12.9941 38.5165 13.1395 38.5509 13.283C38.571 13.4286 38.6013 13.5748 38.6109 13.7215C38.6171 13.7946 38.6256 13.8674 38.63 13.9397L38.6392 14.1543C38.6447 14.2956 38.6425 14.4328 38.6409 14.5634C38.6362 14.6935 38.6327 14.8173 38.6237 14.9316C38.6095 15.1601 38.5879 15.3505 38.5738 15.4841L38.5498 15.6941L38.609 15.4912C38.6455 15.3617 38.6995 15.1771 38.753 14.9512C38.7816 14.8389 38.8064 14.7156 38.8337 14.5847C38.8582 14.4535 38.8841 14.3144 38.9038 14.1691L38.9321 13.9471C38.9403 13.8715 38.9447 13.7949 38.9512 13.7174C39.0003 13.1321 39.0385 12.6191 38.8192 11.9103C38.691 11.4963 38.3013 11.0365 38.0567 10.7777C38.0065 10.7241 37.973 10.657 37.9604 10.5847C37.9478 10.5124 37.9566 10.4379 37.9858 10.3705L38.757 8.56942C38.7906 8.60569 38.8241 8.64197 38.859 8.68124C39.2561 9.12769 39.7539 9.81497 40.0449 10.6375C40.0776 10.7256 40.1226 10.8693 40.1493 10.9675C40.1801 11.0736 40.2069 11.1851 40.2303 11.3002C40.2753 11.5315 40.3116 11.7682 40.322 12.0003C40.3494 12.4517 40.3123 12.9046 40.2118 13.3454C40.167 13.5325 40.111 13.7168 40.044 13.8971C39.9775 14.0583 39.9161 14.2018 39.855 14.3125C39.7989 14.4309 39.7416 14.5124 39.7067 14.5732L39.6505 14.6654L39.7187 14.588C39.762 14.5361 39.8313 14.4677 39.9041 14.3635C39.9819 14.2664 40.064 14.1377 40.1559 13.9888C40.2404 13.8374 40.329 13.6631 40.4087 13.4638C40.5807 13.0221 40.6846 12.5565 40.7169 12.0835Z" fill="#6FCCCF"/>
<path d="M40.6526 10.636C40.5713 10.4038 40.4766 10.1766 40.3689 9.9555C40.2027 9.61597 40.0108 9.28958 39.7951 8.97913C39.6505 8.77045 39.4965 8.56842 39.3337 8.37368L39.2027 8.22095C39.1418 8.11877 39.0496 8.03885 38.9398 7.99295L38.8989 7.97659C38.6177 7.85904 38.2973 7.98586 38.1825 8.26186L35.1707 15.4804C35.1034 15.6421 34.8958 15.6926 34.7655 15.5759C34.4789 15.3218 34.1518 15.1176 33.7978 14.9715C32.4645 14.4151 31.0539 14.7536 30.6473 15.727C30.5679 15.9176 30.5308 16.1233 30.5385 16.3297C30.2985 15.866 30.2439 15.3689 30.4286 14.9262C30.8344 13.9526 32.2449 13.6144 33.5791 14.1708C34.0782 14.3791 34.4971 14.6843 34.8037 15.0359L37.9629 7.46113C38.0786 7.18541 38.3982 7.05804 38.6791 7.17559L38.7211 7.19331C38.8357 7.24077 38.9243 7.32259 38.9832 7.41995C39.0129 7.45486 39.0568 7.50641 39.1141 7.57268C39.2773 7.76756 39.4316 7.96977 39.5764 8.17868C39.7618 8.44486 39.9637 8.77595 40.1491 9.1545C40.3397 9.5475 40.5107 9.99913 40.6185 10.4753C40.6321 10.5353 40.6433 10.5863 40.6526 10.636Z" fill="#9EE5E3"/>
<path d="M41.3901 28.6789C41.2603 28.0892 40.7135 26.908 40.1765 26.5598C41.8543 25.4162 41.0555 22.7389 39.0583 22.7389C37.3546 22.7389 36.4417 24.7565 37.4465 26.0825L37.2774 25.908C37.2774 25.6101 36.5967 24.9144 36.1647 24.7625L30.1319 18.5389L29.8019 16.567C29.6247 15.5086 28.5048 14.946 27.4974 15.198C26.371 15.4761 22.4519 17.4452 21.7537 18.1652C21.0444 18.9008 20.9072 19.5829 21.0937 20.5489C14.2611 27.666 14.4618 27.2457 14.491 27.5089C14.431 27.5661 14.3901 27.6425 14.3765 27.727C14.2837 27.6889 14.1856 27.6561 14.0847 27.6316C14.4569 26.794 14.2077 25.7342 13.3592 25.1634C12.4483 24.5552 11.1828 24.7816 10.5392 25.668C9.85656 26.605 10.078 27.9744 11.1828 28.6052C9.08911 29.8069 9.70656 29.4616 9.24647 29.5898C8.66966 29.5753 8.42775 28.6674 7.83647 28.3461C7.23266 28.0178 6.19384 28.3974 6.67193 29.5925C8.56602 34.2951 10.5681 30.5389 11.0165 31.0652C12.1074 32.3841 11.4272 39.0815 11.7937 39.6234C11.9928 39.9125 12.3119 40.1116 12.6501 40.1552C14.0601 40.3191 13.9887 38.263 14.3683 36.3561V37.0789C14.3683 39.2307 16.1192 40.9816 18.271 40.9816H34.8392C36.991 40.9816 38.7419 39.2307 38.7419 37.0789V34.5589C38.9765 34.878 39.2956 36.3316 39.4892 37.2207C39.7865 38.5843 39.8819 38.9416 40.0374 39.0643C40.2092 39.2007 40.4056 39.2743 40.5992 39.2743C40.6428 39.2743 40.6865 39.2689 40.7301 39.2607C40.9592 39.2225 41.161 39.078 41.2974 38.8598C41.5537 38.4507 41.2674 30.888 41.2374 30.1243C41.4528 29.7207 41.5074 29.2107 41.3901 28.6789ZM39.0583 23.148C39.9501 23.148 40.6783 23.9007 40.6783 24.8225C40.6783 26.274 39.0043 27.036 37.9728 26.0634C36.8827 25.0543 37.567 23.148 39.0583 23.148ZM36.8628 26.0661C36.8118 26.322 36.5418 26.5235 36.3256 26.6689C36.1862 26.7635 35.8235 26.737 35.5783 26.5025C35.1242 26.067 35.5925 25.1389 35.9792 25.1389C36.0359 25.1432 36.9474 25.729 36.8628 26.0661ZM35.6465 24.8116C34.9543 25.1574 34.5861 26.5445 35.6274 27.018C36.1827 27.2667 36.5555 27.0728 36.9392 26.707C37.0756 26.6525 37.2147 26.6089 37.3565 26.5734L38.0874 27.3289H31.5174C31.5768 26.802 31.5411 27.147 30.2492 19.2452L35.6465 24.8116ZM24.6556 16.8752C25.3227 16.5354 26.9037 15.7685 27.5956 15.5934C28.0237 15.4898 28.4901 15.5661 28.8474 15.8007C29.5985 16.2981 29.3647 17.058 29.6301 18.0234L29.7474 18.7298C31.0237 26.7261 31.3191 27.1009 30.9692 27.8007C30.3869 29.143 28.2207 29.2707 27.3037 28.6543C26.3028 27.9785 25.4541 26.083 27.481 25.3161C28.1983 25.0407 28.6156 25.038 29.4147 25.0625C29.4774 25.068 29.5347 25.038 29.5728 24.9943C29.6137 24.948 29.6328 24.8852 29.6219 24.8252C28.5365 19.008 28.8526 18.7257 28.2201 18.4134C28.0019 18.307 27.7565 18.3125 27.5465 18.427C26.3784 19.0568 25.1675 19.434 24.0556 19.848C23.3574 20.107 22.9265 20.8216 23.0083 21.5825C23.281 24.0649 25.3772 30.0698 23.851 31.758C23.2892 32.3528 20.4076 33.2086 19.8583 31.2534C19.51 29.9926 20.9388 28.9096 22.2119 29.1207C23.4894 29.3225 23.0879 28.3952 22.7656 26.737C21.2762 18.8607 20.1237 19.1781 24.6556 16.8752ZM25.9074 27.3289H24.5819C23.8483 22.8943 22.6101 20.8202 24.2001 20.2325C25.3246 19.8092 26.5306 19.4378 27.7401 18.787C27.9348 18.678 28.1997 18.8018 28.2447 19.0598L29.1774 24.648C28.4956 24.6316 28.0428 24.6616 27.3337 24.9343C26.1283 25.3952 25.6183 26.2598 25.9074 27.3289ZM21.1974 21.0261C21.2026 21.057 21.4527 22.0382 22.4601 27.3289H15.0883L21.1974 21.0261ZM11.2483 28.1634C9.95284 27.2634 10.6038 25.2289 12.2192 25.2289C12.5356 25.2289 12.8547 25.3189 13.1328 25.5043C14.8996 26.6907 13.0726 29.4354 11.2483 28.1634ZM12.7019 39.7489C12.4783 39.7216 12.2656 39.588 12.1374 39.4025C12.0665 39.2443 12.0747 38.2761 12.0828 37.3407C12.1824 26.623 10.2719 32.0574 8.57829 31.5425C7.88366 31.3227 6.77311 29.256 6.99647 28.8343C7.11375 28.627 7.43829 28.5943 7.64011 28.7061C8.29875 29.062 8.51393 30.619 10.0919 29.7016L11.6628 28.8016C12.4366 29.0135 13.3524 28.7416 13.8719 28.008C14.0465 28.0352 14.2128 28.0952 14.3683 28.177V34.6543C13.4476 37.5979 13.831 39.8994 12.7019 39.7489ZM38.3328 37.0789C38.3328 39.0043 36.7647 40.5725 34.8392 40.5725H18.271C16.3428 40.5725 14.7774 39.0043 14.7774 37.0789V27.8007H20.7965C19.6584 28.189 18.5669 28.8141 18.4401 30.0152L18.4374 30.0207V30.0425C18.4374 30.157 18.5301 30.247 18.6447 30.247C19.2321 30.247 18.0692 29.1098 20.8837 27.8007H22.5447C22.7566 29.0195 22.8198 28.722 22.0483 28.6898C20.0645 28.6022 18.5263 30.63 19.9101 32.178C21.0373 33.4412 23.5134 32.7256 24.151 32.0334C25.048 31.0609 24.8377 29.0566 24.6556 27.8007H26.0819C26.6023 28.8987 27.4668 29.4019 28.5474 29.4125C29.8194 29.4248 30.9987 28.9933 31.411 27.8007H38.3328V29.8952C37.7307 30.2487 37.5976 30.397 37.4056 30.6207C36.6177 31.5553 37.1383 32.8581 38.3328 32.3198V37.0789ZM40.951 38.6416C40.8747 38.7643 40.7737 38.838 40.6592 38.8598C40.5419 38.8789 40.411 38.838 40.3074 38.7616C40.2174 38.6334 40.0347 37.8016 39.8874 37.1334C39.4764 35.2494 39.2345 34.1571 38.7419 34.1007V32.0798C40.3401 30.9826 40.5174 30.9201 40.8501 30.6098C40.9265 32.5543 41.0847 38.2216 40.951 38.6416ZM40.8556 29.9661C40.8556 29.9689 40.8528 29.9689 40.8528 29.9716C40.4527 30.6439 38.7403 31.462 38.4065 31.7961C38.0459 32.0143 37.6347 32.142 37.5119 31.7389C37.186 30.8206 38.7073 30.2023 38.8319 30.078C39.3523 29.7861 39.8607 29.356 39.9801 28.7661C39.9905 28.713 39.9794 28.6579 39.9493 28.6129C39.9191 28.5679 39.8723 28.5367 39.8192 28.5261C39.4292 28.4481 39.8503 28.962 38.7419 29.6552C38.7209 27.652 38.7888 27.6673 38.6819 27.5225C38.7185 27.2661 38.4894 27.2179 37.8337 26.4834C38.3877 26.9132 39.1082 27.0193 39.7428 26.7834C40.1356 26.9732 40.2616 27.1666 40.471 27.547C40.681 27.9289 40.8965 28.338 40.9919 28.7689C41.0928 29.2216 41.0437 29.647 40.8556 29.9661ZM10.2264 23.8314L10.2245 23.8325C9.50693 24.2667 9.0842 25.0633 9.11993 25.827C9.22002 25.0704 9.76602 24.4388 10.4047 24.1996C10.4317 24.1897 10.4563 24.1742 10.4769 24.1542C10.4976 24.1343 10.5138 24.1102 10.5245 24.0835C10.5353 24.0569 10.5403 24.0283 10.5394 23.9996C10.5384 23.9708 10.5314 23.9427 10.5189 23.9168C10.5063 23.891 10.4885 23.868 10.4665 23.8495C10.4446 23.8309 10.419 23.8172 10.3914 23.8092C10.3638 23.8011 10.3349 23.7989 10.3064 23.8028C10.2779 23.8066 10.2506 23.8164 10.2261 23.8314H10.2264ZM40.2542 21.6019C40.0311 21.481 39.7799 21.4164 39.5307 21.39L39.5279 21.3897C39.5 21.387 39.4717 21.3901 39.445 21.3988C39.4183 21.4075 39.3936 21.4216 39.3726 21.4402C39.3515 21.4588 39.3345 21.4815 39.3226 21.5069C39.3107 21.5324 39.3042 21.56 39.3034 21.5881C39.3026 21.6162 39.3076 21.6441 39.3181 21.6702C39.3285 21.6963 39.3442 21.7199 39.3642 21.7397C39.3842 21.7594 39.408 21.7749 39.4342 21.785C39.4604 21.7952 39.4884 21.7999 39.5165 21.7988C39.7246 21.7898 39.9335 21.8113 40.1285 21.8817C40.3279 21.9545 40.509 22.0699 40.6592 22.2199C40.9715 22.5261 41.1725 22.9519 41.3165 23.3858C41.2366 22.9355 41.1057 22.4762 40.8133 22.0849C40.6642 21.8853 40.4734 21.7203 40.2542 21.6019ZM15.2137 16.387C14.7992 16.5725 14.4065 16.8425 14.0628 17.1807C12.8765 18.3561 12.6256 20.0361 13.5037 20.9252C14.4807 21.9095 16.2081 21.438 17.2537 20.4043L17.281 20.3743C18.3937 19.2534 18.4074 17.4234 17.311 16.297L11.0683 9.86887C15.1254 8.58405 16.9505 11.5254 16.9783 11.5461C17.041 11.6334 17.1583 11.6552 17.2483 11.6007C17.4618 11.4711 17.2625 11.2268 17.251 11.178C15.5639 7.80378 10.1868 8.21968 9.2492 9.15705C9.22956 9.18432 8.97866 9.3725 8.97375 9.74887C8.96611 10.3352 8.94047 9.93023 15.2137 16.387ZM14.9192 9.47068C14.9219 9.47068 14.9219 9.47341 14.9247 9.47341C14.9574 9.48978 14.9928 9.50887 15.0256 9.52523C12.9547 8.71414 10.561 9.47368 10.4983 9.73523C10.4487 9.94141 10.2637 9.57705 17.0192 16.5807C17.9574 17.5489 17.9465 19.1225 16.9919 20.0852L16.9647 20.1125C15.9392 21.1298 14.5156 21.3643 13.7956 20.6361C13.0756 19.908 13.3237 18.4898 14.3519 17.4725C14.731 17.0961 15.1783 16.8152 15.6447 16.6598C15.7101 16.638 15.7619 16.5834 15.7783 16.5125C15.7859 16.4787 15.7849 16.4434 15.7754 16.4101C15.7658 16.3767 15.7481 16.3463 15.7237 16.3216C9.24566 9.71805 9.38284 10.0603 9.38284 9.75705C9.40029 9.09241 12.853 8.38114 14.9192 9.47068Z" fill="#553045"/>
<path d="M32.0109 17.9745L32.0464 17.9909C32.3764 18.1245 32.72 18.1872 33.0582 18.1872C34.1164 18.1872 35.1255 17.5709 35.5618 16.5509L37.6236 11.7372C38.054 12.2748 38.2924 12.7278 38.4145 13.8154C38.4819 14.3862 38.4036 15.1447 38.3464 15.67C38.3207 15.9206 38.6772 15.9871 38.7473 15.7518C38.8572 15.3618 38.8891 15.2557 38.9518 15.0018C39.8826 11.1749 37.9869 10.9002 38.1745 10.45L38.8182 8.94723C41.3284 11.9276 39.4798 14.53 39.4755 14.5572C39.3465 14.7765 39.644 14.984 39.8027 14.8C39.8668 14.678 41.9753 12.599 40.3155 9.1545C40.0422 8.5995 39.2022 7.27596 38.78 7.09268L38.7391 7.07632C38.3545 6.91814 37.9127 7.09268 37.7545 7.47177L34.7164 14.759C34.4109 14.4754 34.0455 14.2409 33.6391 14.0718C32.2045 13.4745 30.6691 13.8618 30.2218 14.9363C29.7718 16.0136 30.5736 17.3745 32.0109 17.9745ZM32.2618 14.1972C32.6518 14.1972 33.0691 14.2763 33.4809 14.4481C33.9364 14.639 34.3318 14.92 34.6318 15.2609C34.6782 15.3127 34.7464 15.3372 34.8173 15.3263C34.8882 15.3154 34.9455 15.269 34.9727 15.2036L38.1336 7.62996C38.2045 7.45814 38.4064 7.38177 38.5809 7.45541C38.6281 7.48814 38.6559 7.43877 38.81 7.64359C38.8599 7.72132 40.6335 9.5865 40.5227 11.9172C40.424 10.5149 39.8011 9.4695 38.9082 8.42905C38.8089 8.32405 38.6284 8.34914 38.57 8.48905L37.7982 10.289C37.4483 11.102 38.9319 11.0527 38.7718 13.379C38.6265 12.2849 37.9809 11.4918 37.9482 11.4918L37.9318 11.47C37.913 11.4416 37.7235 11.2632 37.6945 11.2354C37.6709 11.2121 37.6419 11.195 37.6102 11.1855C37.5784 11.176 37.5448 11.1744 37.5122 11.1808C37.4797 11.1873 37.4492 11.2016 37.4235 11.2225C37.3977 11.2434 37.3775 11.2703 37.3645 11.3009L35.1855 16.39C34.6973 17.5327 33.3582 18.0809 32.2018 17.6118L32.1691 17.5981C29.9095 16.6561 29.9704 14.1972 32.2618 14.1972ZM16.8448 12.724C16.8016 12.6919 16.7475 12.6782 16.6942 12.6857C16.6409 12.6933 16.5927 12.7215 16.5601 12.7643C16.5274 12.8071 16.5129 12.861 16.5197 12.9144C16.5265 12.9678 16.554 13.0163 16.5964 13.0496C17.635 13.8429 18.5639 14.7705 19.3588 15.808C18.6655 14.6788 17.8257 13.6464 16.8612 12.7379C16.856 12.733 16.8505 12.7283 16.8448 12.724Z" fill="#553045"/>
<path d="M36.9972 7.68866C37.0179 7.63989 37.019 7.58498 37.0003 7.53542C36.9815 7.48586 36.9443 7.44548 36.8964 7.42272C36.8485 7.39997 36.7937 7.3966 36.7434 7.41333C36.6931 7.43006 36.6512 7.46558 36.6265 7.51247C36.2364 8.32453 35.9723 9.19129 35.8433 10.0829C36.1001 9.24097 36.4838 8.44308 36.9811 7.71675C36.9871 7.70777 36.9925 7.69838 36.9972 7.68866Z" fill="#553045"/>
</svg>
