<svg width="48" height="48" viewBox="0 0 48 48" fill="none" xmlns="http://www.w3.org/2000/svg">
<rect width="48" height="48" fill="black"/>
<g clip-path="url(#clip0_182_1749)">
<path d="M39.6499 31.7999C39.6499 36.0999 36.1499 39.5999 31.8499 39.5999H16.1999C11.8999 39.5999 8.3999 36.0999 8.3999 31.7999V16.1999C8.3999 11.8999 11.8999 8.3999 16.1999 8.3999H31.8499C36.1499 8.3999 39.6499 11.8999 39.6499 16.1999V31.7999Z" fill="url(#paint0_linear_182_1749)"/>
<path d="M35.9501 16.2001V31.8501C35.9501 34.1001 34.1001 35.9501 31.8501 35.9501H16.2001C13.9501 35.9501 12.1001 34.1001 12.1001 31.8501V16.2001C12.1001 13.9501 13.9501 12.1001 16.2001 12.1001H31.8501C34.1001 12.0501 35.9501 13.9001 35.9501 16.2001Z" fill="url(#paint1_linear_182_1749)"/>
<path d="M29.9999 17.4998V26.6998C29.9999 27.2998 29.6999 27.7998 29.2499 28.1498C28.7999 28.4998 28.1999 28.5998 27.5999 28.3998C27.0499 28.2498 26.5999 27.7998 26.4499 27.2498C26.2499 26.6998 26.3499 26.0998 26.6999 25.5998C27.0499 25.1498 27.5999 24.8498 28.1499 24.8498H28.6999C28.7999 24.8498 28.8499 24.7998 28.9499 24.7498C28.9999 24.6998 29.0499 24.5998 29.0499 24.4998V19.8998H28.9999L21.7499 22.1498C21.6499 22.1498 21.5999 22.2498 21.5999 22.3498V29.5998C21.5999 30.1498 21.3499 30.6498 20.8999 30.9998C20.5499 31.2498 20.1999 31.3998 19.7999 31.3998C19.6499 31.3998 19.4999 31.3998 19.3999 31.3498C18.6999 31.1998 18.1999 30.6498 18.0499 29.9998C17.9499 29.4498 18.0499 28.8998 18.3999 28.4498C18.7499 28.0498 19.2499 27.7998 19.7999 27.7998H20.3499C20.4499 27.7998 20.4999 27.7498 20.5999 27.6998C20.6499 27.6498 20.6999 27.5498 20.6999 27.4498V19.8998C20.6999 19.3998 20.9999 18.9998 21.4499 18.8498L28.8499 16.5998C29.1499 16.4998 29.3999 16.5498 29.6499 16.7498C29.8999 16.8998 29.9999 17.1998 29.9999 17.4998Z" fill="#282930"/>
<path d="M20.9502 13.3998C20.9502 13.8498 16.4502 13.5498 16.4502 13.3998C16.4502 13.2498 20.9502 12.9498 20.9502 13.3998Z" fill="url(#paint2_linear_182_1749)"/>
<path d="M21.5501 13.6002C21.6606 13.6002 21.7501 13.5107 21.7501 13.4002C21.7501 13.2897 21.6606 13.2002 21.5501 13.2002C21.4396 13.2002 21.3501 13.2897 21.3501 13.4002C21.3501 13.5107 21.4396 13.6002 21.5501 13.6002Z" fill="url(#paint3_linear_182_1749)"/>
</g>
<defs>
<linearGradient id="paint0_linear_182_1749" x1="23.9709" y1="5.9129" x2="24.0289" y2="42.1744" gradientUnits="userSpaceOnUse">
<stop stop-color="#FCD1B6"/>
<stop offset="1" stop-color="#F57521"/>
</linearGradient>
<linearGradient id="paint1_linear_182_1749" x1="23.9431" y1="-3.35339" x2="24.0371" y2="41.7611" gradientUnits="userSpaceOnUse">
<stop offset="0.138" stop-color="white" stop-opacity="0"/>
<stop offset="1" stop-color="white"/>
</linearGradient>
<linearGradient id="paint2_linear_182_1749" x1="16.9587" y1="13.3598" x2="21.5517" y2="13.4543" gradientUnits="userSpaceOnUse">
<stop stop-color="white" stop-opacity="0"/>
<stop offset="1" stop-color="white"/>
</linearGradient>
<linearGradient id="paint3_linear_182_1749" x1="16.9596" y1="13.3167" x2="21.5526" y2="13.4112" gradientUnits="userSpaceOnUse">
<stop stop-color="white" stop-opacity="0"/>
<stop offset="1" stop-color="white"/>
</linearGradient>
<clipPath id="clip0_182_1749">
<rect width="32" height="32" fill="white" transform="translate(8 8)"/>
</clipPath>
</defs>
</svg>
