<svg width="48" height="48" viewBox="0 0 48 48" fill="none" xmlns="http://www.w3.org/2000/svg">
<rect width="48" height="48" fill="black"/>
<path fill-rule="evenodd" clip-rule="evenodd" d="M35.6008 7.8501H13.4008C12.9101 7.8501 12.4396 8.04501 12.0926 8.39195C11.7457 8.73889 11.5508 9.20945 11.5508 9.7001V39.3001C11.5508 39.7907 11.7457 40.2613 12.0926 40.6082C12.4396 40.9552 12.9101 41.1501 13.4008 41.1501H35.6008C36.0914 41.1501 36.562 40.9552 36.9089 40.6082C37.2559 40.2613 37.4508 39.7907 37.4508 39.3001V9.7001C37.4508 9.20945 37.2559 8.73889 36.9089 8.39195C36.562 8.04501 36.0914 7.8501 35.6008 7.8501ZM29.6715 27.3102C29.3293 28.0169 28.9815 28.0539 29.1332 27.3102C29.5235 25.3881 29.259 21.2589 26.3508 20.8001V29.5876C26.3508 31.3876 25.522 32.9546 23.3186 33.6631C21.18 34.3458 18.788 33.6335 18.2274 32.098C17.6669 30.5625 18.9249 28.694 21.0357 27.9244C22.2142 27.4952 23.5795 27.3842 24.5008 27.7376V15.2501H26.3508C26.3508 19.6068 33.871 18.6522 29.6715 27.3102Z" fill="#FF007A"/>
</svg>
